<svg width="150" height="100" viewBox="0 0 150 100" fill="none" xmlns="http://www.w3.org/2000/svg">
<g clip-path="url(#clip0_13_203)">
<path d="M102.873 8.84456L102.84 8.2963L102.319 8.37227L102.352 8.92002L102.873 8.84456ZM106.374 23.2071L106.385 23.5095L106.75 23.453C106.739 23.2641 106.784 22.9617 106.861 22.5839L106.828 22.0356C106.673 22.0546 106.518 22.4515 106.374 23.2071ZM92.7141 41.293C92.6921 40.7827 91.7613 38.7986 89.9224 35.3022C89.8893 34.66 90.5206 33.6959 91.8167 32.43L95.5169 26.9305C96.3477 25.1348 96.8353 22.2246 96.9794 18.1804L96.9349 17.2543C96.791 14.4575 95.6057 12.2085 93.3568 10.4888C92.0273 8.958 89.6344 8.10739 86.1779 7.95645C83.3197 8.37227 79.5864 10.1105 74.9889 13.1911C73.7259 14.7409 72.2859 16.2907 70.6684 17.84L70.6904 18.3128C70.7903 18.2938 70.9453 18.1994 71.1226 17.9915C71.3109 17.9535 71.4217 18.1049 71.4328 18.4073L71.7097 18.1614L71.8427 18.1424L71.8538 18.3503C71.8649 18.5962 70.8677 19.9381 68.8515 22.338L69.0067 22.8293L68.8737 22.8483L68.5412 22.6404C68.5523 22.8103 68.4085 22.9237 68.1313 22.9617L68.1425 23.1696L68.4639 23.8498C68.3643 23.8688 68.209 23.7934 67.9986 23.6609C67.5331 23.7364 67.079 24.1522 66.6249 24.9458L66.8133 23.5475C67.4889 18.5772 67.9541 14.1737 68.1978 10.3564L68.1647 10.1105C67.6995 9.60022 67.2451 8.88204 66.8241 7.97495C66.8353 7.38921 66.8353 7.04936 66.8241 6.97339L66.791 6.76549L66.658 6.82246C65.1958 10.5643 62.3818 16.9519 58.2053 25.9854C55.026 32.411 53.3862 35.9829 53.2866 36.7011C51.9905 38.9875 51.37 40.3674 51.4365 40.8397C51.0932 41.2176 50.949 41.5954 51.0044 42.0112C50.9048 42.0492 50.8383 41.9927 50.816 41.8223C50.2623 43.3531 49.4423 44.3357 48.3457 44.7705L47.1935 45.2243C47.0385 45.2807 46.9608 45.4696 46.972 45.791L47.0051 46.0369L47.4372 45.8665L47.4706 46.0744L46.4956 46.7171L44.7674 47.3973L43.8589 47.4917C43.7259 47.7186 44.579 47.4732 44.2468 47.6052L43.1168 48.059C42.4298 48.3234 42.0533 48.2289 41.9868 47.7566L41.8538 47.8131C41.8761 48.021 41.8869 48.1724 41.8649 48.3044L41.7984 47.8321L40.8899 48.1909C40.8234 47.4733 39.5938 44.8649 37.212 40.3674C37.1678 39.4978 38.0095 38.2314 39.7269 36.5876L44.579 29.3114C45.6647 26.9305 46.3072 23.1127 46.5179 17.859L46.4514 16.6306C46.263 12.9267 44.6897 9.94057 41.7319 7.6351C39.9814 5.613 36.8353 4.53549 32.2934 4.36556C28.5267 4.91382 23.6077 7.20029 17.5591 11.188C15.8974 13.2476 14.003 15.2887 11.8761 17.3108L11.9092 17.9535C12.0533 17.9345 12.2414 17.8025 12.474 17.5756C12.7178 17.5377 12.8508 17.7266 12.873 18.1049L13.2495 17.7456L13.4379 17.7266L13.449 18.0289C13.4602 18.3313 12.1418 20.089 9.47197 23.3016L9.68232 23.8688L9.49424 23.8878L9.08408 23.6419C9.09522 23.8308 8.90684 23.9633 8.51924 24.0198L8.54121 24.3601L8.98447 25.1917C8.84063 25.2107 8.64111 25.1348 8.38623 24.9838C7.52227 25.1163 6.68027 26.1743 5.84941 28.1779L6.05977 28.7446C6.77988 27.6106 7.20088 27.0439 7.32275 27.0249L7.36699 27.951C7.24512 27.97 7.05674 28.1019 6.80215 28.3288L7.25625 29.5008C8.1141 27.9189 9.08566 26.5281 10.1479 25.3617C10.6685 25.5886 10.9453 25.8719 10.9564 26.1743L11.3552 26.1178C14.2134 22.5079 17.0385 19.9001 19.8413 18.2938L19.8744 18.936C19.3538 20.2589 18.9993 20.9396 18.8109 20.9771C18.8332 21.4309 18.9217 21.8277 19.0878 22.1681C19.1323 22.9807 17.8582 28.4613 15.2769 38.5907C9.4166 62.1382 4.49766 79.5624 0.498634 90.8263C0.509474 91.0527 0.587111 91.3551 0.731252 91.7334C1.71709 91.3366 2.3376 90.9208 2.60332 90.5235L2.81397 90.486L2.84707 91.1287L3.2127 91.0717L3.58945 90.7129C3.60059 90.9018 3.72246 90.9963 3.97705 90.9583L4.01045 91.601C4.04356 92.2247 3.8332 93.1693 3.38994 94.4737C2.99121 95.2483 2.55908 96.8736 2.10498 99.3495L2.11582 99.6519L2.48145 99.5949C4.07695 96.5523 5.28428 93.5661 6.11514 90.6559C10.7681 88.3315 14.3133 86.045 16.7725 83.796C19.2431 83.4366 21.1263 82.3216 22.4115 80.4885L22.3893 80.1486L21.4588 80.6209L21.2481 80.6589L21.2259 80.3185C23.0429 79.8463 24.2947 79.1656 24.9926 78.221C28.5267 73.5716 31.1965 70.2835 33.0023 68.3369C36.7134 63.688 39.1286 59.152 40.2252 54.749C40.4327 54.6719 40.6395 54.5899 40.8457 54.5031C41.3663 54.4656 41.6543 54.4466 41.7319 54.4086C41.7097 54.2387 41.7542 54.1443 41.8538 54.1063C42.6847 53.9553 42.2859 54.2007 42.8177 53.9928L44.2134 53.4451C44.1249 53.4826 44.0915 53.5585 44.1138 53.7095L44.3241 53.4826C44.2799 53.4826 44.2468 53.4641 44.2134 53.4451L44.446 53.3506L44.3353 53.4641C44.4905 53.5015 44.6566 53.4826 44.845 53.4071L44.9446 54.1063L38.5969 71.3231L37.1897 74.3277L36.503 78.2585L36.636 78.202L37.3228 77.7107L37.1013 79.2415L37.1678 79.6948L37.3559 80.0916C37.2674 80.1296 37.2343 80.2241 37.2562 80.394L37.2896 80.6399L37.5776 80.5264C37.9986 79.9027 38.1759 79.336 38.1094 78.8257C38.5635 78.9576 38.8626 79.0146 39.0179 78.9392L39.051 79.1845C38.7741 79.298 38.63 79.6758 38.6077 80.3185L38.6411 80.5644L38.7961 80.5075C41.1006 76.2174 46.7505 61.5335 51.2815 51.5739C51.1374 50.4969 53.497 49.0036 58.3714 47.0759L58.5267 47.0195C58.7039 48.3234 58.3271 51.4795 57.3967 56.4877C56.7984 59.5114 56.5104 61.1746 56.5547 61.439C55.7792 65.4642 55.4136 67.6377 55.4578 67.9781L53.7296 77.6347C52.6107 82.5865 51.7579 87.7837 51.1597 93.2642C51.2593 93.2263 51.4143 93.2452 51.636 93.3397L51.8795 92.9804C51.9018 93.1508 51.9683 93.2073 52.0679 93.1693L51.9683 92.4701L52.7215 92.4326C52.943 92.3382 53.1313 91.8654 53.2866 90.9963C53.2532 89.6923 53.4085 88.9931 53.7519 88.8417C54.2171 85.7426 54.5051 84.1928 54.605 84.1358C55.0368 81.0557 55.3582 79.298 55.5686 78.8632C56.2225 74.857 56.6985 72.7969 57.0088 72.6645L57.0753 73.1562L56.5989 75.2538C55.7681 81.547 54.9261 86.5173 54.0732 90.1646L54.317 91.9788L54.472 91.9223C56.5324 84.3627 59.5014 69.3954 63.3677 47.0195C63.4787 45.0538 64.0324 43.523 65.0185 42.446L64.7968 42.0492L64.7637 41.8413C65.2069 41.6713 65.5169 41.369 65.6941 40.9532C65.6722 40.7827 65.2843 40.5374 64.5311 40.197L66.4588 26.0988C66.8795 25.4561 67.1232 25.1163 67.2009 25.1163L67.2343 25.8344C67.1344 25.8529 66.9794 25.9474 66.8021 26.1553L67.1678 27.0439C67.8322 25.8155 68.5523 24.7569 69.339 23.8688C69.7377 24.0577 69.9372 24.2846 69.9595 24.5115L70.2475 24.4736C72.4409 21.7333 74.5901 19.7677 76.7059 18.5772L76.7282 19.0495C76.3406 20.051 76.0746 20.5613 75.9305 20.5803C75.9527 20.9206 76.0081 21.223 76.1077 21.4874C76.1411 22.1111 75.1884 26.2687 73.2387 33.9793C68.785 51.8383 65.0517 65.0484 62.0162 73.6285C62.0273 73.7985 62.0938 74.0254 62.2157 74.3277C62.9578 74.0254 63.4342 73.704 63.6226 73.4016L63.7556 73.3826L63.7778 73.8554L64.0878 73.8175L64.3649 73.5716C64.3758 73.704 64.4757 73.761 64.6641 73.742L64.686 74.2523C64.7083 74.7056 64.5533 75.4237 64.2097 76.4063C63.8886 76.9925 63.556 78.221 63.2016 80.0916L63.2127 80.3375L63.5007 80.2995C64.7083 77.9941 65.6276 75.7261 66.2593 73.4961C69.7931 71.7199 72.4852 70.0002 74.3464 68.2989C76.2407 68.0155 77.6698 67.1839 78.6448 65.7856L78.6337 65.5402L77.9136 65.899L77.7586 65.918L77.7475 65.6721C79.1212 65.3323 80.0851 64.803 80.6057 64.1038C83.2866 60.5884 85.314 58.075 86.6877 56.6012C90.9639 51.2905 92.9578 46.1878 92.7141 41.293ZM91.9831 41.6144L92.0827 43.523C91.9497 43.9958 91.8059 44.2412 91.6728 44.2602L91.5067 41.0096C91.8167 41.1986 91.972 41.3875 91.9831 41.6144ZM8.09824 26.2313L7.90986 26.2498L7.87676 25.664L8.64111 25.5506L8.65225 25.8529C8.53037 25.8719 8.34199 25.9854 8.09824 26.2313ZM4.36494 89.9377C3.92168 89.5979 3.52295 89.4654 3.17959 89.5219L3.13506 88.5958C3.11309 88.237 3.23496 87.9911 3.50068 87.8966C3.74444 87.8592 3.88858 88.1615 3.91055 88.7663C4.55332 87.4244 4.90781 86.7442 4.97432 86.7252L5.38418 87.0085C5.25117 88.8987 4.90781 89.8623 4.36494 89.9377ZM44.2579 18.7471C44.0695 18.7851 43.6928 17.7836 43.1499 15.7989L43.1168 15.2132C43.4713 15.1567 43.8369 16.1393 44.2245 18.1614L44.2579 18.7471ZM43.7259 11.6983L43.5709 12.322L38.1536 8.46673C41.765 8.67463 43.6263 9.75165 43.7259 11.6983ZM20.8494 45.2053L20.0851 45.3187L20.0517 44.7325L20.816 44.6195L20.8494 45.2053ZM20.2289 25.0783L20.4173 25.0593L20.4615 25.9854C20.2843 26.0044 20.0517 26.4577 19.7637 27.3273L19.7303 26.6846C20.0739 25.9854 20.2512 25.4561 20.2289 25.0783ZM18.6226 31.5414L18.6891 32.7698L18.5007 32.7888L18.4342 31.5604L18.6226 31.5414ZM17.7806 33.8474L18.1462 33.7904C18.1131 34.8109 17.947 35.3592 17.6479 35.3967L17.4595 35.4156C17.6921 34.7355 17.8028 34.2062 17.7806 33.8474ZM17.1492 37.0599L17.3596 37.0219L17.3707 37.3243L17.0273 38.3074L16.6617 38.3638L16.6506 38.0615C17.0162 38.005 17.1823 37.6836 17.1492 37.0599ZM16.5287 39.9516L16.418 41.5009L16.2296 41.5199L16.1522 39.9891L16.5287 39.9516ZM10.314 70.0946C10.0702 72.2112 9.8042 73.2882 9.52734 73.3262L9.51621 73.0238C9.44971 71.9843 9.71572 71.0017 10.314 70.0946ZM9.17285 74.3087L9.18398 74.6111C9.20596 75.0269 9.09522 75.2728 8.85147 75.2913L8.84063 74.9889C8.81836 74.6301 8.9291 74.4032 9.17285 74.3087ZM8.84063 83.0588L9.4166 82.9644L9.43857 83.3047C9.29473 83.3232 9.10635 83.4556 8.87373 83.6825L8.50811 83.739C8.48584 83.4181 8.60772 83.1723 8.84033 83.0588H8.84063ZM25.2363 74.4222C22.0014 77.1435 20.0959 78.9956 19.5311 79.9592C16.0304 82.0383 14.291 83.3232 14.3241 83.8335C11.2113 85.9315 9.16172 87.4813 8.17588 88.4449C7.94326 88.4829 7.61074 88.3315 7.16777 87.9911C7.1124 86.9141 7.40039 86.045 8.00947 85.3458C8.55234 85.2698 9.07295 85.4023 9.57158 85.7611C10.1479 85.2508 11.156 84.6841 12.5851 84.0794L12.5517 83.4366L11.3997 83.6071C11.5436 83.2667 12.6513 82.3786 14.734 80.9423L15.3103 80.8478L15.3214 81.1502C14.3353 81.3011 13.7924 81.7929 13.6705 82.681C13.6928 83.0778 13.8258 83.2477 14.0695 83.2102C14.8116 82.4161 15.1772 81.9438 15.1661 81.8114C16.5732 81.3581 20.4615 77.8806 26.8315 71.3985L26.8649 71.9843C26.8761 72.2676 26.3332 73.0613 25.2363 74.4222ZM15.4652 79.9027C16.396 79.7703 17.1935 79.1281 17.8582 78.0131C18.1239 77.9751 18.2681 78.145 18.2792 78.5418C17.8248 78.6178 16.9497 79.26 15.6759 80.5075L15.4875 80.5264L15.4652 79.9027ZM31.2296 59.2465L26.344 65.8425C22.7104 69.9057 20.7606 71.9463 20.4838 71.9843C14.7009 77.4083 11.1006 80.2241 9.70459 80.432L9.49424 80.4695C9.67149 79.355 12.2414 70.378 17.2269 53.4826C19.4203 53.1612 22.8768 51.423 27.5851 48.2479L28.737 48.0775C31.1188 47.7186 32.9024 48.5123 34.077 50.4024L34.1432 51.6304C33.2569 55.9774 32.2822 58.5098 31.2296 59.2465ZM21.6803 50.0811L22.4669 49.9676L22.4777 50.27L21.6914 50.3834L21.6803 50.0811ZM32.7252 46.887L33.3015 46.7926C33.8332 47.2274 34.1101 47.6052 34.1323 47.9455L34.1432 48.2479C33.6337 48.3234 33.1573 47.8701 32.7252 46.887ZM34.2873 31.7118C33.7778 32.7508 32.3818 34.5275 30.0996 37.0219C29.3464 37.1354 26.5436 38.9875 21.6914 42.6159C21.4488 42.4268 21.1816 42.3488 20.9159 42.3895L20.8825 41.8033C20.8271 40.6128 21.1374 39.12 21.8241 37.3058C22.2009 33.9038 22.6107 31.9572 23.0651 31.4849L27.1087 15.9694C27.0642 15.0053 27.9284 14.2681 29.7009 13.7579L30.2769 13.6634L30.3214 14.552C32.0604 14.0982 33.1462 13.8338 33.5672 13.7768C36.7799 13.3046 38.4527 14.4196 38.5857 17.0844L38.9514 17.0274L38.8737 15.4591L39.2725 15.4021C40.2141 16.2907 40.7238 17.3677 40.7903 18.6337C40.8346 19.5033 40.5577 20.5803 39.9703 21.8657C39.7269 21.9032 39.5827 21.6008 39.5604 20.9961L39.1617 21.0531L39.0732 22.9427C37.4446 27.1004 36.2593 29.2359 35.528 29.3494C34.8633 30.9182 34.4534 31.6928 34.2873 31.7118ZM36.7687 42.5784C36.4365 42.2001 36.1705 42.0302 35.9713 42.0492L35.9268 41.1231L36.2924 41.0666L37.1013 41.8793C37.1344 42.3136 37.0236 42.5405 36.7687 42.5784ZM39.339 47.7751C39.6935 48.021 39.9041 48.2854 39.9483 48.5313L39.7711 48.6067L39.7822 48.6257C39.7488 48.6257 39.7046 48.6447 39.6712 48.6637L39.4055 49.0226L39.339 47.7751ZM39.5827 50.3834L39.5496 50.1376L40.0148 49.9486L40.048 50.1945L39.5827 50.3834ZM40.7016 52.519C41.1779 52.3865 41.4105 52.3301 42.2968 51.9897L42.3302 52.2356L40.6462 52.8968C40.6685 52.7644 40.6904 52.6324 40.7016 52.519ZM42.3413 53.7095C41.6323 53.8229 41.7873 53.6715 40.6573 54.1063L40.6239 53.8609L42.0311 53.0857L42.7069 52.8214L42.7731 53.2747C42.474 53.3881 42.6958 53.3881 42.3413 53.7095ZM43.8369 53.1047C43.6705 53.1802 43.5378 53.0483 43.4602 52.7269L43.8923 52.5565C44.0804 52.481 44.2022 52.6134 44.2468 52.9348L43.8369 53.1047ZM47.8913 45.6586L47.8582 45.4132L48.5561 45.1298L48.6226 45.5831L47.8913 45.6586ZM52.2231 90.9773C52.2674 90.6369 52.2785 90.3915 52.2562 90.2211L52.4115 90.1646C52.5996 90.0892 52.7104 90.2026 52.7549 90.505L52.788 90.7504L52.2231 90.9773ZM55.2586 47.6052L54.9483 47.5107C54.4497 47.8511 54.0287 48.0965 53.6853 48.2289L53.3974 48.3424C53.2312 48.4178 53.0982 48.3044 53.0317 48.002L55.0591 47.2084L55.7238 46.6791L55.9453 47.1139C55.6239 47.2274 55.3913 47.3973 55.2586 47.6052ZM56.8204 46.7546L56.7873 46.5092C56.8869 46.4712 57.0199 46.3393 57.1641 46.0934L58.604 45.5266L58.6374 45.772C57.873 46.0934 57.2637 46.4147 56.8204 46.7546ZM57.0422 41.7843C56.9423 41.8223 56.8096 41.9737 56.6432 42.2001C56.6212 42.0302 56.4217 42.0302 56.0449 42.1816C55.9787 41.7088 57.0422 41.0476 59.2468 40.178L59.5567 40.0646L59.6232 40.5184C58.0723 41.293 57.2083 41.7278 57.0422 41.7843ZM60.9196 34.641C60.7644 37.6457 60.1441 39.3469 59.0473 39.7812L59.0142 39.5358L58.0392 40.178L57.607 40.3484C57.3855 40.4429 57.186 40.4239 57.0088 40.3294L56.9203 39.6677C56.8869 39.4224 58.294 36.0958 61.1522 29.7082L61.4845 29.8032C61.6063 30.6723 61.418 32.2786 60.9196 34.641ZM67.7769 24.6245L67.6441 24.6435L67.6219 24.1712L68.1978 24.0767L68.209 24.3221C68.1094 24.3601 67.9652 24.4546 67.7769 24.6245ZM64.952 73.0238C64.6195 72.7589 64.3204 72.646 64.0658 72.6835L64.0324 71.9653C64.0213 71.7199 64.1101 71.5495 64.2984 71.455C64.4868 71.4175 64.5975 71.6439 64.6195 72.1357C65.0959 71.0962 65.3619 70.5669 65.4173 70.5669L65.7164 70.7748C65.6057 72.2112 65.3508 72.9668 64.952 73.0238ZM95.24 18.974C95.0959 18.993 94.819 18.2368 94.3869 16.706L94.3649 16.2337C94.6418 16.1958 94.9298 16.9329 95.2178 18.4448L95.24 18.974ZM94.8413 13.5689L94.7083 14.0602L90.6094 11.131C93.3457 11.2825 94.7637 12.0951 94.8413 13.5689ZM77.4595 39.0255L76.8832 39.12L76.8612 38.6472L77.4372 38.5717L77.4595 39.0255ZM76.9831 23.7364L77.1381 23.7174L77.1712 24.4356C77.0273 24.4546 76.8501 24.7949 76.6395 25.4561L76.6175 24.9838C76.8724 24.4356 76.9939 24.0198 76.9831 23.7364ZM75.7755 28.6502L75.8197 29.5763L75.6647 29.5953L75.6202 28.6692L75.7755 28.6502ZM75.1219 30.4079L75.4099 30.3699C75.3767 31.1636 75.2549 31.5794 75.0442 31.6174L74.8893 31.6358C75.0554 31.1071 75.133 30.6913 75.1219 30.4079ZM74.6566 32.8268L74.7896 32.8078L74.8005 33.0532L74.5459 33.8094L74.2576 33.8474L74.2468 33.6015C74.5459 33.5635 74.6786 33.2991 74.6566 32.8268ZM74.1914 35.0188L74.0915 36.2283L73.9585 36.2473L73.9031 35.0568L74.1914 35.0188ZM69.4608 57.9426C69.2725 59.5303 69.0732 60.343 68.8626 60.3805L68.8515 60.1726C68.8184 59.3789 69.0176 58.6233 69.4608 57.9426ZM68.5857 61.1366L68.5966 61.3445C68.6188 61.6844 68.5304 61.8738 68.3309 61.8923L68.3197 61.6469C68.3086 61.401 68.3974 61.2311 68.5857 61.1366ZM68.342 67.7887L68.785 67.7322L68.7961 67.9776C68.6965 67.9966 68.5412 68.091 68.364 68.2614L68.076 68.2989C68.0648 68.0345 68.1536 67.8646 68.342 67.7887ZM80.7829 61.2311C78.3457 63.2912 76.8943 64.6895 76.4402 65.4077C73.7812 66.995 72.4632 67.9781 72.4852 68.3749C70.1256 69.9812 68.5746 71.1337 67.8434 71.8708C67.6661 71.8898 67.4112 71.7764 67.079 71.512C67.0348 70.6993 67.2562 70.0376 67.7215 69.5464C68.1425 69.4899 68.5412 69.5843 68.9068 69.8487C69.3501 69.4709 70.1144 69.0551 71.2002 68.5828L71.1779 68.11L70.2694 68.2235C70.3805 67.9591 71.2333 67.2784 72.8177 66.1824L73.2606 66.1259L73.2718 66.3338C72.5185 66.4473 72.0975 66.8251 72.0088 67.5053C72.0199 67.8076 72.1307 67.9591 72.319 67.9211C72.873 67.2974 73.1388 66.9385 73.1388 66.8251C74.2022 66.5037 77.1492 63.8579 81.9905 58.9066L82.0125 59.3789C82.0236 59.5868 81.6138 60.1916 80.7829 61.2311ZM73.3605 65.3887C74.0804 65.2753 74.6897 64.803 75.1995 63.9714C75.3876 63.9334 75.4986 64.0848 75.5095 64.3872C75.1772 64.4436 74.5236 64.9164 73.5375 65.8235L73.3825 65.8425L73.3605 65.3887ZM85.3471 49.6843L81.658 54.749C78.8994 57.8291 77.4041 59.3789 77.1712 59.4169C72.7843 63.5366 70.0591 65.6721 68.9845 65.8235L68.8295 65.8425C68.9622 64.9919 70.9233 58.1695 74.712 45.3562C76.3626 45.1108 78.977 43.7689 82.5665 41.35L83.4639 41.2176C85.2694 40.9532 86.6212 41.5579 87.5074 43.0127L87.5517 43.9388C86.8758 47.1894 86.1448 49.098 85.3471 49.6843ZM78.102 42.7294L78.6779 42.6349L78.6891 42.8808L78.1131 42.9753L78.102 42.7294ZM86.4882 40.2915L86.9314 40.235C87.3413 40.5748 87.5517 40.8777 87.5628 41.1231L87.5739 41.331C87.186 41.3875 86.8204 41.0476 86.4882 40.2915ZM87.6513 28.7826C87.2637 29.5763 86.2113 30.9367 84.4942 32.8268C83.918 32.9213 81.791 34.3196 78.1131 37.0409C77.9358 36.9275 77.7363 36.89 77.5257 36.909L77.5037 36.4362C77.4595 35.5291 77.6921 34.3951 78.2016 33.0157C78.4895 30.4079 78.8109 28.9525 79.1432 28.6122L82.234 16.8195C82.2009 16.1203 82.8545 15.5535 84.184 15.1187L84.6269 15.0623L84.6603 15.7804C85.9676 15.4211 86.7873 15.2132 87.1195 15.1567C89.5567 14.7974 90.8309 15.629 90.9305 17.6701L91.2185 17.6321L91.1631 16.4981L91.4514 16.4606C92.1603 17.1218 92.5368 17.916 92.5813 18.8606C92.6144 19.5413 92.4149 20.3724 91.9939 21.3365C91.8059 21.3739 91.6951 21.1475 91.6728 20.6563L91.3849 20.6937L91.2961 22.1111C90.0665 25.3052 89.1691 26.9494 88.604 27.0249C88.1057 28.1779 87.7954 28.7636 87.6513 28.7826ZM88.9476 36.6441L88.9142 35.9259L89.2022 35.8884L89.8227 36.5307C89.8339 36.833 89.7451 37.0034 89.5567 37.0409C89.291 36.7575 89.0915 36.6251 88.9476 36.6441ZM37.3781 82.5485L37.0901 82.662L36.8464 83.0208C36.8906 83.3232 37.0014 83.4366 37.1897 83.3612C37.3781 83.2857 37.4558 83.0968 37.4115 82.7944L37.3781 82.5485ZM36.2815 78.8257L36.3146 79.0711C36.503 78.9956 36.5804 78.8067 36.5361 78.5043L36.503 78.2585C36.3258 78.3344 36.2481 78.5233 36.2815 78.8257ZM44.0804 47.1704L44.4129 47.0384L44.3464 46.5472L44.0142 46.6791L44.0804 47.1704ZM144.605 61.5714C141.237 62.8564 140.816 62.6295 140.107 62.7239L140.129 63.1967L140.44 63.1587L140.606 63.1397L140.561 63.0833L140.927 62.8374C144.261 62.2136 144.649 62.4405 144.616 61.7978L144.605 61.5714ZM126.47 65.6721L126.492 66.1449H126.536L126.514 65.6721H126.47ZM124.387 53.2182L124.088 53.0482C123.844 54.1632 123.722 54.8245 123.733 55.0134L123.744 55.2213C123.977 55.2023 124.188 54.5221 124.387 53.2182ZM145.292 61.477L145.314 61.9493L145.801 62.1002L145.779 61.6279L145.292 61.477ZM122.371 66.2578L121.617 66.1069L121.484 66.5982L121.496 66.8441L125.982 66.2014L125.96 65.7291L122.371 66.2578ZM120.332 49.4953L120.321 49.2495L120.166 49.2684L119.889 49.5708L120.044 50.0241C120.255 49.9866 120.354 49.8162 120.332 49.4953ZM147.419 57.9995L147.629 57.9615C147.751 57.9426 147.807 57.7726 147.795 57.4703L147.674 57.0165C146.909 57.1299 146.555 57.1869 145.934 57.7726L145.923 57.5272L145.004 57.6782C144.981 57.2059 144.904 56.96 144.782 56.979L144.306 57.0545C143.752 57.1299 143.486 57.0924 143.209 57.4513C143.198 57.2814 143.165 57.2059 143.109 57.2059L142.578 57.2814L142.267 57.5837C142.256 57.4138 142.223 57.3378 142.167 57.3378L141.979 57.6217L141.968 57.3758L141.226 57.2814L141.049 57.3003L141.071 57.7726L141.448 57.9426L141.802 57.9051C141.924 58.0375 142.057 58.075 142.212 58.056L142.522 57.7916L142.533 57.9995C140.794 58.7367 140.805 58.6043 139.608 58.9446C139.476 58.7932 139.376 58.7177 139.309 58.7367L139.287 58.7742C139.154 58.7552 139.077 58.6043 139.066 58.3584L139.686 58.2264C139.73 58.2264 139.764 58.3019 140.107 58.4153C140.606 57.9995 140.628 57.8291 140.894 57.7916L140.871 57.3188C139.165 57.8861 139.852 57.5083 137.714 57.8291L137.614 57.8481L137.592 57.3758C140.34 56.8091 139.42 57.1299 140.362 56.6766C140.373 56.8465 140.406 56.922 140.462 56.922C140.562 56.7461 140.695 56.6331 140.838 56.6012L141.027 56.5822C141.99 56.4497 142.312 56.7711 144.217 55.864L144.228 56.0719L144.538 55.807L144.826 55.7695C144.804 55.2967 145.225 55.2213 145.369 55.2023L145.347 54.692C142.001 55.845 141.126 55.5236 140.196 55.9774L140.185 55.7695C139.31 56.0339 139.276 55.9205 139.055 55.9395C138.988 55.9584 138.889 56.0529 138.778 56.2418C138.767 56.0719 138.733 55.9959 138.667 55.9959C138.634 55.9959 138.623 56.0149 138.611 56.0149L135.775 56.8086C135.764 56.6766 135.731 56.6012 135.665 56.6197C134.191 57.1489 134.59 57.2434 132.618 57.5457C132.529 57.5647 132.408 57.6402 132.253 57.8106C132.241 57.6782 132.197 57.6027 132.098 57.6212L130.89 57.7916L130.081 58.1315C130.07 57.9995 130.026 57.9241 129.926 57.9426C129.472 58.1505 129.073 58.2829 128.752 58.3209H128.73C128.53 58.3584 128.829 58.2264 128.674 58.113L128.43 58.3584C128.076 58.4153 128.264 58.3209 127.046 58.3394C124.908 58.7932 125.14 58.8497 124.908 58.8686L124.11 58.7742C124.121 58.9066 124.077 59.0011 123.988 59.0011C123.08 58.7932 122.614 58.5473 122.603 58.2639C122.725 56.7901 122.936 56.0339 123.235 55.9959L123.39 55.9774L123.257 56.4687L123.412 56.4497C123.7 56.1853 123.833 55.9395 123.822 55.7126L123.8 55.2023L123.512 55.2403L123.49 54.768C123.468 54.4086 123.501 54.0873 123.578 53.8229L124.232 52.0277L124.254 52.5L124.564 52.462L124.542 51.9897L124.365 51.5549C124.598 51.2151 124.775 51.0257 124.919 51.0072L124.908 50.7613L124.487 50.8182L124.453 50.1001C125.295 47.1139 125.694 45.3752 125.672 44.8839L125.971 45.0918C126.16 45.0728 126.248 44.8839 126.237 44.5436L125.949 44.5815L125.938 44.3736C125.918 44.0286 125.956 43.6809 126.049 43.3721C126.503 42.5594 126.713 41.7468 126.669 40.8962C126.758 40.8772 126.802 40.9532 126.813 41.1231C127.201 40.7453 127.5 39.7437 127.721 38.0805C128.408 35.9639 129.383 31.7308 130.657 25.3996C133.095 14.2116 132.995 13.0212 133.338 10.3754L133.05 10.4129C133.072 10.7532 133.028 11.0746 132.94 11.3769C132.74 11.2445 132.585 11.169 132.474 11.188L132.463 10.9801C132.419 10.016 132.652 8.86355 133.183 7.50266L133.316 7.48366L133.56 9.10894L133.848 9.07145C133.837 8.958 133.914 8.31529 134.07 7.12483C134.058 6.87894 133.948 6.728 133.726 6.70901L133.449 7.01138C133.427 6.67103 133.438 5.78293 133.471 4.36556L133.327 4.38455C133.083 3.96874 132.962 3.62839 132.95 3.34502L131.366 3.6094C131.355 3.42049 131.3 3.13711 131.189 2.77827C131.178 2.53238 131.532 2.28649 132.264 2.0411L132.585 2.24901L132.884 1.94665C132.895 2.11657 132.95 2.19204 133.061 2.17354L133.36 1.87118C133.371 2.0411 133.427 2.11657 133.538 2.09758L133.682 2.07909L133.659 1.53083C133.438 1.56882 132.851 1.56882 131.92 1.51184L131.621 1.85219L131.61 1.54982C124.177 2.58886 119.956 3.1751 118.948 3.34502C118.815 3.36401 118.294 3.34502 117.374 3.30704C117.386 3.51494 117.275 3.62839 117.053 3.66638L116.732 3.42049L115.646 3.89327C115.391 3.93076 114.959 3.91177 114.361 3.79882C114.195 4.02521 113.996 4.15766 113.752 4.19564C113.619 4.21413 115.336 4.04421 116.931 3.85529C116.765 4.08219 116.51 4.21413 116.156 4.2711C115.912 4.30909 115.702 4.25211 115.524 4.08219C115.281 4.2711 114.494 4.57347 113.176 5.02677L112.854 4.81936L107.67 6.17975C107.47 6.00983 107.238 5.95285 106.972 5.99083C106.695 6.02882 106.23 6.19874 105.587 6.50111L103.083 8.27731L103.272 8.80657C103.394 8.78758 103.571 8.67463 103.781 8.46673L104.668 8.59867L104.557 10.016C103.737 10.6398 103.261 11.5658 103.128 12.7378C101.898 13.6634 101.289 14.3251 101.289 14.7219L101.3 14.9678L101.488 14.9488L101.82 14.6465L102.208 15.4401L102.264 16.5361C102.286 16.8765 100.214 24.3036 96.0709 38.8176C92.4814 52.8024 90.5982 60.4564 90.421 61.8358C89.1914 62.4216 88.4821 63.2722 88.2718 64.4062C88.294 64.765 88.6594 65.0109 89.3684 65.1053L89.4017 65.6531L89.0804 66.5602L89.1357 67.6567C89.1691 68.2234 90.0665 68.6583 91.8278 68.9606C91.8167 68.7717 91.8724 68.6583 91.9939 68.6393C92.0273 69.3195 91.9166 70.6424 91.6617 72.608L91.8501 72.589C92.5811 70.8883 92.9247 69.7163 92.8913 69.0741L93.0466 69.0551C93.2238 69.0361 93.4122 69.3764 93.6337 70.1131C93.4122 70.2645 92.6367 73.2692 91.3072 79.1471L91.4956 79.6758L91.684 79.6573C93.3123 72.627 94.3315 68.7337 94.7525 67.9966C96.8906 67.6752 100.591 67.033 105.842 66.0689L106.174 65.7291C106.185 65.918 106.252 66.0125 106.374 65.9935L106.717 65.937L107.05 65.5966C107.06 65.7855 107.127 65.88 107.249 65.861L111.226 65.2753C112.279 65.1243 112.777 64.5761 112.733 63.65C112.721 63.4046 113.342 63.1207 114.594 62.8184C114.716 62.7994 114.893 62.8564 115.137 62.9888C115.126 62.8184 115.757 62.6484 117.02 62.4595C117.053 61.3255 117.264 60.7208 117.64 60.6643L117.607 60.1161C117.253 60.1726 116.854 60.324 116.389 60.5884C115.558 60.5129 115.026 60.3995 114.804 60.267C114.583 60.4749 114.417 60.5884 114.295 60.6074L111.525 60.7588L111.193 61.0612C111.182 60.8907 111.115 60.8153 110.993 60.8343L110.838 60.8533L110.484 61.1556C110.473 60.9852 110.185 60.8533 109.608 60.7208L109.254 61.0797L108.567 61.1741L108.556 60.8717C112.123 60.2105 113.885 59.3789 113.84 58.3964C114.073 58.3584 114.195 58.5473 114.217 58.9446L115.259 58.4908L115.225 57.9426L106.684 58.3394C106.695 58.5288 106.639 58.6417 106.518 58.6607L105.476 58.5098C105.21 58.5473 104.989 58.6797 104.812 58.9066L104.424 58.6607C103.349 58.8122 102.552 59.0391 102.02 59.3224C101.289 59.228 100.48 59.2465 99.5827 59.3789L97.6661 59.6623L96.7799 59.4924C96.7356 58.5288 97.8322 53.7849 100.092 45.2807C100.746 42.408 101.344 40.6128 101.92 39.9326C102.042 39.9136 102.219 39.9891 102.463 40.159L103.826 39.3654L104.524 39.5543C105.698 39.3844 107.06 38.8176 108.623 37.8346C109.01 37.7781 109.298 37.8161 109.509 37.967L110.55 37.5512L113.652 37.0979C114.97 36.909 116.399 36.4172 117.95 35.6046L117.917 35.0568C117.341 35.1513 117.042 34.9813 117.02 34.584C116.987 33.8474 116.566 33.545 115.757 33.6579L115.724 33.1102L116.577 32.6944L118.815 32.373L118.781 31.8253C118.693 31.8438 118.239 31.8253 117.397 31.7683L117.363 31.1825L118.228 31.0501C118.46 31.0126 118.56 30.8232 118.538 30.4454C117.374 30.5024 116.787 30.4079 116.776 30.143C108.667 30.8232 104.601 30.9556 104.579 30.5208C104.457 30.5398 104.291 30.6723 104.07 30.8992L103.859 30.3319C106.008 22.5459 107.271 18.6152 107.637 18.5582C107.648 18.8606 107.559 19.3518 107.36 20.0135L107.371 20.2589L107.714 20.2025C108.567 16.725 109.287 14.9298 109.886 14.8544C112.433 14.476 109.531 14.1927 114.981 12.7378C115.203 12.9077 115.358 12.9832 115.469 12.9642C117.607 12.2275 120.587 11.4524 124.409 10.6587L124.387 10.1105L122.348 10.4318L122.326 9.88409C122.57 9.84611 122.769 9.71367 122.936 9.48727L122.947 9.78963C123.058 9.77064 123.213 9.6382 123.412 9.4113C123.767 9.35483 124.032 9.4113 124.221 9.58173C124.93 9.26037 125.506 9.07145 125.927 8.99549L127.201 8.78758C127.511 8.44773 127.655 8.14537 127.644 7.862L127.633 7.61611C127.312 7.67258 126.946 7.6351 126.514 7.50266C126.503 7.20029 126.591 6.99239 126.802 6.89793L129.173 6.5201L130.259 6.04731C130.269 6.25522 130.325 6.33118 130.414 6.33118C130.524 6.31219 130.68 6.17975 130.879 5.95285C130.934 5.97184 131.001 5.97184 131.056 5.99083C130.912 6.50111 130.746 7.23828 130.58 8.20184L130.269 8.23983C130.247 7.88049 130.192 7.55963 130.092 7.27576L129.937 7.29475C127.057 20.9771 125.772 27.3463 123.113 37.8536C122.626 40.5374 122.216 42.0302 121.861 42.3515C121.872 42.6539 121.983 42.8048 122.171 42.7674C122.238 44.0903 122.06 45.3942 121.629 46.6791C120.399 52.7269 119.579 56.0339 119.158 56.6386L119.435 59.4924C119.446 59.7947 119.358 59.9647 119.169 60.0026L118.881 60.0406C118.837 59.2465 118.67 58.8686 118.371 58.9256L118.216 58.9446C117.84 59.9462 117.552 61.0986 117.363 62.4405L117.651 62.4026C118.039 61.9683 118.216 61.458 118.183 60.8717L118.759 60.7773L119.091 60.9852C118.826 61.7034 118.704 62.2706 118.726 62.7049L118.881 63.1587L118.504 64.6705L118.516 64.9164C118.848 64.8595 119.213 65.0484 119.601 65.4452C119.867 65.4077 120.155 65.1998 120.476 64.8405C120.809 64.784 122.049 64.765 124.188 64.765L125.262 64.1413C126.57 64.1223 126.78 64.1793 127.91 64.0093L128.375 63.9334L128.619 63.65L128.63 63.8959C129.815 63.7255 129.893 63.8579 130.823 64.0468L130.835 64.2927L130.181 64.3872L130.203 64.8595C130.402 64.822 130.58 64.727 130.724 64.5196C130.89 64.5006 130.99 64.6516 131.001 64.9919C130.735 65.0299 130.436 65.1428 130.103 65.3323L129.815 65.1618C129.361 65.3697 129.461 65.4267 129.151 65.4642L128.696 65.3133C128.708 65.4452 128.663 65.5397 128.586 65.5397C128.597 65.8425 128.696 65.9935 128.863 65.9745L129.328 65.899L131.754 65.5397L132.674 65.1998C132.685 65.3322 132.718 65.4077 132.795 65.3887L133.238 65.1053L134.07 64.9919C134.712 64.8974 134.701 64.822 136.097 64.4436C136.086 64.2927 136.119 64.2357 136.185 64.2173L136.196 64.4247C138.468 63.7635 138.611 63.7255 138.977 63.5176L139.01 63.631C139.575 63.4046 139.254 63.4611 139.409 63.2722C139.42 63.4421 139.453 63.5176 139.509 63.5176L139.908 63.4611L139.886 62.9508L139.077 62.9318L139.066 62.8943C139.032 62.9128 139.01 62.9128 138.977 62.9318H138.866V62.9698C138.323 63.1587 138.312 63.0263 137.958 63.0833L135.93 63.2722L135.919 63.0263L137.049 62.7619L137.459 62.7049L137.692 62.4216L137.703 62.6674C139.298 62.4405 139.863 63.1207 147.241 60.4374C147.64 60.3805 147.607 59.8137 147.862 58.6417C147.727 58.6575 147.592 58.605 147.474 58.4908C146.865 58.8876 146.544 58.6987 145.369 59.0201C145.269 59.0391 145.192 58.8876 145.159 58.5853L145.148 58.3774L146.278 58.4338C146.488 58.3964 146.898 58.3394 147.507 57.7536C147.507 57.9241 147.286 58.0185 147.419 57.9995ZM92.8693 59.4924L92.3484 59.5678C92.3265 59.209 92.6033 57.8481 93.1793 55.5236L93.5229 55.4672C93.5341 56.0149 93.3234 57.3568 92.8693 59.4924ZM93.5007 55.1838L93.4895 54.9379C93.4784 54.6355 93.5894 54.4276 93.8332 54.3332L93.844 54.5786C93.8552 54.9379 93.7444 55.1458 93.5007 55.1838ZM100.425 64.3117L100.436 64.5571L99.5716 64.6895L99.5604 64.4436L100.425 64.3117ZM99.3832 64.1603C99.3943 64.4626 99.1286 64.803 98.5523 65.1428L97.4889 65.0109L97.1455 65.0674L97.1124 64.5196L99.3832 64.1603ZM106.385 9.1849L105.864 9.26037L105.853 8.958C105.842 8.65564 105.942 8.44773 106.163 8.35328L106.351 8.33428L106.706 8.57967C106.717 8.93901 106.617 9.14692 106.385 9.1849ZM114.306 6.53909L114.472 6.5201L114.494 7.06785L114.018 7.14382C114.007 6.84145 114.095 6.63355 114.306 6.53909ZM112.312 7.72956L111.525 7.57812L111.514 7.33273C112.544 7.1813 112.888 6.99239 113.519 6.69002C113.53 6.89793 113.641 6.97339 113.84 6.93591L113.863 7.48366L113.552 7.54064C113.309 7.57812 113.098 7.52165 112.921 7.35172C112.733 7.55963 112.533 7.69157 112.312 7.72956ZM113.298 12.6244L113.287 12.3785L114.56 12.1706L114.572 12.4165L113.298 12.6244ZM114.66 10.7342L114.649 10.4318L115.269 10.3374L115.281 10.6398L114.66 10.7342ZM114.804 7.03037L114.638 7.04936L114.782 6.46312L116.2 6.23672L116.211 6.53909C115.846 6.59556 115.369 6.76549 114.804 7.03037ZM115.524 12.246L115.502 11.6983L116.123 11.6038C116.333 11.5658 116.444 11.7358 116.455 12.1141L115.524 12.246ZM119.28 3.51494L118.482 3.89327L118.338 3.91177C117.962 3.96874 117.474 3.94975 116.898 3.85529C117.928 3.74184 118.914 3.6094 119.28 3.51494ZM118.427 9.56273L118.438 9.80812L117.341 9.97855L117.33 9.73266L118.427 9.56273ZM120.221 11.0176C120.21 10.7912 120 10.6398 119.568 10.5643L118.471 11.0935L117.629 11.15C117.441 10.9231 117.341 10.7722 117.33 10.6587L118.305 10.7532L120.499 10.1485L121.617 10.2239L121.629 10.5263C121.075 10.6208 120.609 10.7912 120.221 11.0176ZM131.51 6.04731C131.643 6.0663 131.732 6.0663 131.765 6.0663C132.153 5.42409 132.585 4.91382 133.083 4.55448C132.685 7.54064 132.064 9.75165 131.211 11.188L130.591 10.5453C131.111 8.2963 131.422 6.80347 131.51 6.04731ZM129.605 11.6228L129.76 11.6038C129.549 12.284 129.361 12.6429 129.206 12.6618L129.173 11.9437C129.272 11.9437 129.417 11.8302 129.605 11.6228ZM128.375 16.6306C128.674 14.5895 128.962 13.437 129.228 13.1346L129.239 13.38C129.084 15.2702 128.84 16.2717 128.519 16.3472L128.575 17.5377C128.309 18.1804 128.187 18.6717 128.198 19.0495L128.043 19.0685L127.954 17.4242C128.131 17.3867 128.275 17.1218 128.375 16.6306ZM127.899 19.3518C127.91 19.6357 127.799 20.2969 127.578 21.3175L127.422 21.3365L127.389 20.6183C127.6 19.7867 127.777 19.3708 127.899 19.3518ZM118.959 63.612L118.948 63.4046L119.236 63.3666L119.269 64.0848C119.114 64.1038 119.003 63.9524 118.959 63.612ZM131.732 64.1793C131.721 64.0093 131.677 63.9334 131.577 63.9524L130.857 64.0658L130.846 63.8199H130.912L132.618 63.5745L132.629 63.8199C132.131 63.8579 131.832 63.9903 131.732 64.1793ZM130.879 63.5745C130.945 63.631 130.912 63.688 130.879 63.7255C130.846 63.707 130.801 63.65 130.879 63.5745ZM130.968 60.1726L130.015 60.305L130.004 60.0591L130.868 59.9272L131.621 59.6058C131.632 59.7567 131.677 59.8137 131.776 59.7947C132.674 59.5303 132.585 59.4549 133.017 59.3979C133.161 59.3789 133.25 59.5303 133.261 59.8327L130.968 60.1726ZM134.302 59.6813C133.77 59.5868 133.737 59.5114 133.361 59.5678L133.349 59.3599L134.202 59.228L134.213 59.4359C134.125 59.4549 134.446 59.4924 134.302 59.6813ZM134.369 59.4169L134.358 59.209L134.823 59.1335L134.834 59.3414L134.369 59.4169ZM135.399 59.2655L135.388 59.0576C135.465 59.0391 135.576 58.9446 135.72 58.7552C135.953 58.7177 136.075 58.9821 136.097 59.2845L135.399 59.2655ZM136.717 58.9821L136.706 58.7367L137.271 58.6607L137.282 58.9066L136.717 58.9821ZM137.504 58.8686C137.493 58.5853 137.559 58.4153 137.703 58.3774L137.891 58.7932C137.88 58.6607 137.914 58.5853 137.98 58.5663L138.124 59.0201L137.504 58.8686ZM129.14 65.0299L129.117 64.5571L129.029 64.5761L129.051 65.0484L129.14 65.0299ZM148.604 56.4307C148.693 56.3363 148.737 56.2418 148.527 56.1853C148.427 56.3743 148.637 56.4307 148.416 56.4497L148.427 56.6197C148.449 56.5822 148.504 56.5252 148.549 56.4687L148.427 56.6386V56.6576L148.194 57.1679L148.659 56.8845H148.715L148.693 56.4117L148.604 56.4307ZM149.413 57.5083L149.324 57.5272L149.346 57.9995L150 57.9051C149.989 57.6027 149.557 57.5083 149.413 57.5083ZM148.405 56.6766L148.416 56.6576V56.6386C148.416 56.6386 148.405 56.6576 148.405 56.6766Z" fill="#2563EB"/>
<path d="M105.875 21.6953L105.886 21.9976L106.252 21.9412C106.241 21.7523 106.285 21.4499 106.363 21.0716L106.329 20.5238C106.174 20.5428 106.019 20.9396 105.875 21.6953ZM102.374 7.33272L102.341 6.78446L101.82 6.85993L101.854 7.40818L102.374 7.33272ZM92.2157 39.7812C92.1935 39.2709 91.263 37.2868 89.424 33.7904C89.3906 33.1481 90.0223 32.1841 91.3184 30.9181L95.0185 25.4186C95.8494 23.6229 96.3366 20.7127 96.4808 16.6685L96.4365 15.7424C96.2924 12.9452 95.107 10.6967 92.8582 8.97698C91.5287 7.44616 89.1357 6.59555 85.6796 6.44411C82.8214 6.85993 79.0878 8.59865 74.4905 11.6793C73.2275 13.2291 71.7873 14.7784 70.1698 16.3282L70.1921 16.801C70.2917 16.782 70.4467 16.6875 70.6242 16.4796C70.8123 16.4416 70.9233 16.5931 70.9342 16.8954L71.2113 16.6495L71.344 16.6306L71.3552 16.8385C71.3663 17.0843 70.3693 18.4257 68.3531 20.8262L68.5081 21.3174L68.3751 21.3364L68.0429 21.1285C68.054 21.2985 67.9099 21.4119 67.633 21.4499L67.6441 21.6578L67.9652 22.338C67.8656 22.357 67.7106 22.2815 67.5 22.1491C67.0348 22.2245 66.5804 22.6404 66.1263 23.434L66.3146 22.0356C66.9905 17.0654 67.4557 12.6618 67.6995 8.84454L67.6661 8.59865C67.2009 8.08838 66.7468 7.3702 66.3258 6.4631C66.3369 5.87737 66.3369 5.53702 66.3258 5.46155L66.2924 5.25365L66.1597 5.31062C64.6972 9.05244 61.8832 15.4401 57.7069 24.4735C54.5273 30.8992 52.8876 34.4706 52.788 35.1887C51.4919 37.4757 50.8714 38.8551 50.9379 39.3279C50.5945 39.7057 50.4504 40.0835 50.5061 40.4994C50.4061 40.5373 50.3396 40.4804 50.3177 40.3104C49.7637 41.8413 48.9439 42.8238 47.8471 43.2586L46.6948 43.7119C46.5398 43.7689 46.4622 43.9578 46.4733 44.2792L46.5067 44.5246L46.9386 44.3546L46.972 44.5625L45.997 45.2052L44.2687 45.8854L43.3605 45.9799C43.2275 46.2068 44.0804 45.9609 43.7481 46.0933L42.6182 46.5471C41.9314 46.8115 41.5547 46.7171 41.4882 46.2448L41.3552 46.3013C41.3774 46.5092 41.3886 46.6601 41.3663 46.7925L41.2998 46.3202L40.3913 46.6791C40.3251 45.9609 39.0952 43.3531 36.7134 38.8551C36.6691 37.986 37.5111 36.7195 39.2282 35.0758L44.0804 27.7995C45.1661 25.4186 45.8086 21.6008 46.0192 16.3472L45.9527 15.1187C45.7644 11.4149 44.1914 8.42872 41.2333 6.12326C39.4831 4.10116 36.3369 3.02365 31.7947 2.85372C28.028 3.40148 23.1094 5.68845 17.0604 9.67616C15.3987 11.7357 13.5044 13.7768 11.3774 15.7989L11.4105 16.4416C11.5547 16.4226 11.7431 16.2907 11.9757 16.0638C12.2194 16.0258 12.3524 16.2147 12.3744 16.5931L12.7512 16.2337L12.9395 16.2147L12.9504 16.5171C12.9615 16.8195 11.6432 18.5772 8.97334 21.7897L9.18398 22.357L8.9956 22.376L8.58574 22.1301C8.59687 22.319 8.4085 22.4514 8.02061 22.5079L8.04287 22.8483L8.48584 23.6799C8.34199 23.6989 8.14248 23.6229 7.88789 23.472C7.02363 23.6039 6.18164 24.6625 5.35078 26.6656L5.56143 27.2328C6.28154 26.0988 6.70225 25.5321 6.82412 25.5131L6.86865 26.4392C6.74678 26.4576 6.5584 26.5901 6.30352 26.817L6.75791 27.9885C7.6158 26.4069 8.58724 25.0164 9.64922 23.8498C10.1698 24.0767 10.447 24.3601 10.4578 24.6625L10.8568 24.606C13.715 20.9961 16.5398 18.3883 19.3427 16.782L19.3761 17.4242C18.8552 18.7471 18.5007 19.4278 18.3123 19.4653C18.3346 19.9191 18.4233 20.3159 18.5895 20.6562C18.6337 21.4689 17.3596 26.9494 14.7785 37.0789C8.91797 60.6263 3.99932 78.0505 0 89.314C0.0111328 89.5409 0.0887695 89.8432 0.232617 90.2211C1.21875 89.8243 1.83896 89.4089 2.10498 89.0116L2.31533 88.9741L2.34873 89.6164L2.71406 89.5599L3.09082 89.201C3.10195 89.3899 3.22383 89.4844 3.47871 89.4464L3.51182 90.0891C3.54492 90.7129 3.33457 91.6574 2.89131 92.9613C2.49258 93.7365 2.06045 95.3618 1.60635 97.8377L1.61748 98.1395L1.98311 98.0831C3.57832 95.0404 4.78594 92.0543 5.6168 89.1441C10.2697 86.8196 13.8146 84.5326 16.2741 82.2841C18.7444 81.9248 20.6276 80.8098 21.9129 78.9766L21.8906 78.6368L20.9602 79.1091L20.7495 79.147L20.7275 78.8067C22.5442 78.3344 23.7961 77.6537 24.4942 76.7091C28.028 72.0597 30.6978 68.7717 32.5037 66.8251C36.215 62.1761 38.63 57.6402 39.7269 53.2372C39.9261 53.1612 40.1256 53.0857 40.3471 52.9913C40.8677 52.9538 41.156 52.9348 41.2333 52.8968C41.2113 52.7269 41.2556 52.6324 41.3552 52.5944C42.186 52.4435 41.7873 52.6889 42.319 52.481L43.715 51.9332L43.9477 51.8383L43.8369 51.9517C43.9919 51.9897 44.158 51.9707 44.3464 51.8952L44.446 52.5944L38.0982 69.8107L36.6914 72.8159L36.0044 76.7466L36.1374 76.6901L36.8241 76.1989L36.6026 77.7297L36.6691 78.183L36.8575 78.5798C36.7687 78.6178 36.7356 78.7122 36.7576 78.8822L36.791 79.128L37.079 79.0146C37.5 78.3909 37.6772 77.8241 37.6107 77.3139C38.0648 77.4458 38.364 77.5028 38.5192 77.4273L38.5523 77.6727C38.2755 77.7861 38.1313 78.164 38.1094 78.8067L38.1425 79.0521L38.2978 78.9956C40.602 74.7055 46.2519 60.0216 50.7829 50.0621C50.6388 48.9851 52.9986 47.4917 57.873 45.5641L58.028 45.5076C58.2053 46.8115 57.8288 49.9676 56.898 54.9759C56.2998 57.9995 56.0118 59.6623 56.056 59.9272C55.2806 63.9523 54.9149 66.1259 54.9595 66.4657L53.2312 76.1229C52.1121 81.0747 51.2593 86.2713 50.661 91.7519C50.7606 91.7144 50.9159 91.7334 51.1374 91.8279L51.3811 91.4685C51.4031 91.6389 51.4696 91.6954 51.5695 91.6574L51.4696 90.9583L52.2231 90.9208C52.4446 90.8263 52.633 90.3535 52.788 89.4844C52.7549 88.1805 52.9099 87.4813 53.2532 87.3299C53.7184 84.2308 54.0067 82.681 54.1063 82.624C54.5385 79.5439 54.8596 77.7862 55.0702 77.3513C55.7238 73.3451 56.2002 71.2851 56.5104 71.1526L56.5769 71.6439L56.1006 73.742C55.2694 80.0351 54.4277 85.0054 53.5746 88.6528L53.8184 90.467L53.9733 90.4105C56.0341 82.8509 59.003 67.8831 62.8693 45.5076C62.9801 43.542 63.5341 42.0112 64.5199 40.9342L64.2984 40.5373L64.265 40.3294C64.7083 40.159 65.0185 39.8571 65.1958 39.4413C65.1735 39.2709 64.7859 39.0255 64.0324 38.6852L65.9602 24.587C66.3811 23.9443 66.6249 23.6044 66.7022 23.6044L66.7356 24.3221C66.636 24.3411 66.4808 24.4356 66.3035 24.6435L66.6691 25.5321C67.3339 24.3036 68.054 23.2451 68.8403 22.357C69.2393 22.5459 69.4386 22.7728 69.4608 22.9992L69.7488 22.9617C71.9423 20.2214 74.0915 18.2558 76.2076 17.0654L76.2296 17.5376C75.842 18.5392 75.576 19.0495 75.4321 19.0685C75.4541 19.4088 75.5095 19.7112 75.6094 19.9756C75.6425 20.5993 74.6897 24.7569 72.74 32.4675C68.2866 50.3265 64.553 63.5365 61.5176 72.1167C61.5287 72.2866 61.5952 72.5135 61.7171 72.8159C62.4595 72.5135 62.9358 72.1922 63.1242 71.8898L63.2569 71.8708L63.2792 72.3431L63.5894 72.3056L63.8663 72.0597C63.8774 72.1922 63.977 72.2486 64.1654 72.2301L64.1877 72.7404C64.2097 73.1937 64.0547 73.9119 63.7113 74.8944C63.3899 75.4807 63.0577 76.7091 62.7032 78.5798L62.7141 78.8257L63.0023 78.7877C64.2097 76.4822 65.1293 74.2143 65.7606 71.9843C69.2947 70.208 71.9868 68.4878 73.8477 66.7871C75.7424 66.5037 77.1712 65.6721 78.1462 64.2737L78.135 64.0278L77.4149 64.3872L77.2599 64.4061L77.2488 64.1603C78.6226 63.8199 79.5864 63.2911 80.107 62.592C82.788 59.0765 84.8153 56.5632 86.189 55.0888C90.4652 49.7787 92.4595 44.676 92.2157 39.7812ZM91.4845 40.1025L91.5841 42.0112C91.4514 42.484 91.3072 42.7294 91.1742 42.7483L91.0081 39.4978C91.3183 39.6867 91.4733 39.8756 91.4845 40.1025ZM7.59961 24.7194L7.41152 24.7379L7.37812 24.1522L8.14248 24.0387L8.15361 24.3411C8.03174 24.3601 7.84336 24.4735 7.59961 24.7194ZM3.86631 88.4259C3.42334 88.0855 3.02432 87.9536 2.68096 88.0101L2.63672 87.084C2.61445 86.7252 2.73633 86.4793 3.00234 86.3848C3.2458 86.3473 3.38994 86.6497 3.41221 87.2544C4.05469 85.9125 4.40918 85.2323 4.47568 85.2133L4.88555 85.4967C4.75254 87.3864 4.40918 88.3504 3.86631 88.4259ZM43.7593 17.2353C43.5709 17.2733 43.1941 16.2717 42.6516 14.2871L42.6182 13.7014C42.9727 13.6449 43.3383 14.6274 43.7259 16.6495L43.7593 17.2353ZM43.2275 10.1864L43.0723 10.8102L37.655 6.95438C41.2667 7.16229 43.1279 8.23981 43.2275 10.1864ZM20.3508 43.6934L19.5864 43.8069L19.5533 43.2206L20.3177 43.1072L20.3508 43.6934ZM19.7303 23.5664L19.9186 23.5475L19.9632 24.4735C19.7859 24.4925 19.5533 24.9458 19.265 25.8154L19.2319 25.1727C19.5753 24.4735 19.7525 23.9443 19.7303 23.5664ZM18.1239 30.0295L18.1904 31.258L18.0023 31.277L17.9358 30.0485L18.1239 30.0295ZM17.2822 32.3355L17.6479 32.2785C17.6145 33.2991 17.4483 33.8473 17.1492 33.8848L16.9608 33.9038C17.1935 33.2236 17.3042 32.6944 17.2822 32.3355ZM16.6506 35.5481L16.8612 35.5101L16.8721 35.8125L16.5287 36.7955L16.1631 36.852L16.1522 36.5496C16.5179 36.4932 16.684 36.1718 16.6506 35.5481ZM16.0304 38.4398L15.9196 39.9891L15.7312 40.0081L15.6536 38.4773L16.0304 38.4398ZM9.81533 68.5828C9.57158 70.6993 9.30586 71.7763 9.02871 71.8143L9.01787 71.512C8.95137 70.4724 9.21709 69.4899 9.81533 68.5828ZM8.67422 72.7969L8.68535 73.0993C8.70762 73.5151 8.59687 73.761 8.35312 73.7794L8.34199 73.4771C8.31973 73.1182 8.43047 72.8913 8.67422 72.7969ZM8.34199 81.547L8.91797 81.4525L8.94023 81.7929C8.79609 81.8113 8.60771 81.9438 8.3751 82.1707L8.00947 82.2272C7.9875 81.9058 8.10937 81.6604 8.34199 81.547ZM24.7377 72.9103C21.503 75.6316 19.5976 77.4838 19.0324 78.4473C15.5317 80.5264 13.7924 81.8113 13.8258 82.3216C10.7127 84.4197 8.66308 85.969 7.67725 86.9331C7.44463 86.9705 7.1124 86.8196 6.66914 86.4793C6.61377 85.4022 6.90176 84.5326 7.51113 83.8334C8.054 83.758 8.57461 83.8904 9.07324 84.2493C9.64922 83.739 10.6573 83.1722 12.0864 82.5675L12.0533 81.9248L10.9011 82.0947C11.0449 81.7549 12.1529 80.8668 14.2356 79.4304L14.8116 79.336L14.8228 79.6383C13.8369 79.7893 13.294 80.2805 13.1722 81.1691C13.1941 81.566 13.3271 81.7359 13.5709 81.6979C14.3133 80.9043 14.6786 80.432 14.6678 80.2995C16.0746 79.8462 19.9632 76.3688 26.3332 69.8867L26.3663 70.4724C26.3774 70.7558 25.8346 71.5494 24.7377 72.9103ZM14.9669 78.3909C15.8974 78.2584 16.6951 77.6162 17.3596 76.5012C17.6256 76.4632 17.7697 76.6332 17.7806 77.03C17.3265 77.106 16.4514 77.7482 15.1772 78.9956L14.9889 79.0146L14.9669 78.3909ZM30.7312 57.7346L25.8457 64.3492C22.212 68.4123 20.2623 70.4534 19.974 70.4914C14.1914 75.915 10.5908 78.7312 9.19512 78.9391L8.98447 78.9766C9.16172 77.8616 11.7319 68.8851 16.7171 51.9897C18.9105 51.6684 22.367 49.9296 27.0753 46.7551L28.2275 46.5846C30.6094 46.2258 32.393 47.0194 33.5672 48.9091L33.6337 50.1375C32.7586 54.4656 31.7836 56.998 30.7312 57.7346ZM21.1816 48.5692L21.9683 48.4558L21.9794 48.7582L21.1928 48.8716L21.1816 48.5692ZM32.2269 45.3752L32.8028 45.2807C33.3346 45.7155 33.6114 46.0933 33.6337 46.4337L33.6448 46.7361C33.1351 46.8115 32.6587 46.3577 32.2269 45.3752ZM33.7887 30.2C33.2792 31.239 31.8832 33.0157 29.6013 35.5101C28.8478 35.6235 26.0449 37.4757 21.1928 41.1041C20.9502 40.915 20.6829 40.8368 20.4173 40.8772L20.3842 40.2915C20.3288 39.101 20.6388 37.6082 21.3258 35.794C21.7022 32.392 22.1124 30.4454 22.5665 29.9731L26.6101 14.4575C26.5658 13.4935 27.4298 12.7563 29.2022 12.246L29.7785 12.1516L29.8228 13.0402C31.5621 12.5864 32.6476 12.322 33.0686 12.265C36.2815 11.7927 37.9541 12.9077 38.0871 15.5725L38.4527 15.5155L38.3751 13.9473L38.7741 13.8903C39.7157 14.7784 40.2252 15.8559 40.2917 17.1218C40.3359 17.9914 40.0591 19.0685 39.472 20.3539C39.2282 20.3914 39.0841 20.089 39.0621 19.4843L38.6631 19.5412L38.5746 21.4309C36.946 25.5885 35.7606 27.7241 35.0297 27.8375C34.3649 29.4058 33.9551 30.181 33.7887 30.2ZM36.2704 41.0666C35.9379 40.6883 35.6722 40.5183 35.4727 40.5373L35.4284 39.6113L35.794 39.5543L36.6026 40.3674C36.636 40.8017 36.525 41.0286 36.2704 41.0666ZM38.8406 46.2633C39.1951 46.5092 39.4055 46.7735 39.4497 47.0194L39.2725 47.0949L39.2836 47.1139C39.2505 47.1139 39.206 47.1329 39.1728 47.1519L38.9068 47.5107L38.8406 46.2633ZM39.0841 48.8716L39.051 48.6257L39.5162 48.4368L39.5496 48.6827L39.0841 48.8716ZM40.2032 51.0071C40.6796 50.8747 40.9122 50.8182 41.7984 50.4779L41.8315 50.7233L40.1478 51.385C40.1698 51.2525 40.1921 51.1206 40.2032 51.0071ZM41.8427 52.1976C41.1337 52.3111 41.2887 52.1596 40.1587 52.5944L40.1256 52.3485L41.5436 51.5739L42.2194 51.3095L42.2859 51.7628C41.9757 51.8763 42.1972 51.8763 41.8427 52.1976ZM43.3383 51.5929C43.1722 51.6684 43.0392 51.5364 42.9615 51.2151L43.3937 51.0446C43.582 50.9692 43.7039 51.1016 43.7481 51.423L43.3383 51.5929ZM47.393 44.1467L47.3596 43.9013L48.0577 43.6175L48.1242 44.0713L47.393 44.1467ZM51.7245 89.4654C51.7687 89.1251 51.7799 88.8797 51.7576 88.7093L51.9129 88.6528C52.1013 88.5773 52.212 88.6908 52.2562 88.9931L52.2896 89.2385L51.7245 89.4654ZM54.76 46.0933L54.4497 45.9989C53.9514 46.3392 53.5304 46.5846 53.1867 46.7171L52.8987 46.8305C52.7326 46.906 52.5996 46.7925 52.5331 46.4902L54.5604 45.6965L55.2252 45.1673L55.447 45.6021C55.1256 45.7155 54.893 45.8854 54.76 46.0933ZM56.3221 45.2427L56.2887 44.9973C56.3886 44.9594 56.5213 44.8274 56.6654 44.5815L58.1057 44.0143L58.1388 44.2602C57.3744 44.5815 56.765 44.9029 56.3221 45.2427ZM56.5435 40.2725C56.4439 40.3104 56.3109 40.4614 56.1448 40.6883C56.1226 40.5183 55.9233 40.5183 55.5466 40.6693C55.4801 40.197 56.5435 39.5358 58.7481 38.6662L59.0584 38.5527L59.1249 39.0065C57.5739 39.7812 56.7097 40.216 56.5435 40.2725ZM60.421 33.1292C60.266 36.1338 59.6455 37.8345 58.5486 38.2694L58.5155 38.024L57.5405 38.6662L57.1087 38.8366C56.8869 38.9311 56.6877 38.9121 56.5104 38.8176L56.4217 38.1559C56.3886 37.9105 57.7954 34.584 60.6536 28.1964L60.9858 28.2908C61.1077 29.1604 60.9196 30.7667 60.421 33.1292ZM67.2785 23.1126L67.1455 23.1316L67.1232 22.6593L67.6995 22.5649L67.7103 22.8103C67.6107 22.8483 67.4669 22.9427 67.2785 23.1126ZM64.4534 71.512C64.1212 71.2471 63.8221 71.1336 63.5672 71.1716L63.5341 70.4534C63.5229 70.208 63.6114 70.0376 63.7998 69.9432C63.9882 69.9057 64.0989 70.1321 64.1212 70.6234C64.5976 69.5843 64.8633 69.0551 64.9186 69.0551L65.2178 69.263C65.107 70.6993 64.8524 71.455 64.4534 71.512ZM94.7414 17.4622C94.5975 17.4812 94.3204 16.725 93.8886 15.1942L93.8663 14.7219C94.1432 14.6839 94.4314 15.4211 94.7194 16.9329L94.7414 17.4622ZM94.3427 12.0571L94.2097 12.5484L90.1107 9.61919C92.8471 9.77062 94.265 10.5833 94.3427 12.0571ZM76.9608 37.5137L76.3848 37.6082L76.3626 37.1354L76.9386 37.0409L76.9608 37.5137ZM76.4845 22.2245L76.6395 22.2056L76.6728 22.9237C76.5287 22.9427 76.3515 23.2831 76.1411 23.9443L76.1188 23.472C76.3737 22.9237 76.4956 22.5079 76.4845 22.2245ZM75.2768 27.1383L75.3214 28.0644L75.1661 28.0834L75.1219 27.1573L75.2768 27.1383ZM74.6232 28.8956L74.9112 28.8581C74.8781 29.6517 74.7562 30.0675 74.5459 30.105L74.3906 30.124C74.5567 29.5952 74.6344 29.1794 74.6232 28.8956ZM74.158 31.315L74.291 31.296L74.3021 31.5414L74.0473 32.2975L73.7593 32.3355L73.7481 32.0896C74.0473 32.0516 74.1803 31.7873 74.158 31.315ZM73.6928 33.507L73.5932 34.7164L73.4602 34.7354L73.4048 33.545L73.6928 33.507ZM68.9622 56.4307C68.7741 58.0185 68.5746 58.8311 68.364 58.8686L68.3531 58.6607C68.3197 57.8671 68.5192 57.1109 68.9622 56.4307ZM68.0871 59.6248L68.0982 59.8327C68.1205 60.1725 68.0317 60.3615 67.8322 60.3805L67.8214 60.1351C67.8102 59.8892 67.8987 59.7192 68.0871 59.6248ZM67.8434 66.2768L68.2866 66.2203L68.2975 66.4657C68.1978 66.4847 68.0429 66.5792 67.8656 66.7496L67.5776 66.7871C67.5665 66.5227 67.655 66.3528 67.8434 66.2768ZM80.2843 59.7192C77.8471 61.7793 76.3957 63.1777 75.9416 63.8959C73.2829 65.4832 71.9645 66.4657 71.9868 66.8625C69.6269 68.4693 68.076 69.6218 67.345 70.359C67.1678 70.378 66.9129 70.2645 66.5804 70.0001C66.5361 69.1875 66.7576 68.5258 67.2231 68.0345C67.6441 67.9781 68.0429 68.0725 68.4085 68.3369C68.8515 67.9591 69.6158 67.5432 70.7016 67.0705L70.6796 66.5982L69.7822 66.7306C69.893 66.4657 70.7458 65.7855 72.3302 64.6895L72.7731 64.6325L72.7843 64.8404C72.031 64.9539 71.6101 65.3322 71.5213 66.0124C71.5324 66.3148 71.6432 66.4657 71.8315 66.4282C72.3855 65.8045 72.6513 65.4452 72.6513 65.3322C73.715 65.0109 76.6617 62.3651 81.503 57.4138L81.525 57.8861C81.525 58.075 81.1151 58.6797 80.2843 59.7192ZM72.8619 63.8769C73.582 63.7634 74.1914 63.2911 74.7009 62.4595C74.8893 62.4405 75 62.573 75.0111 62.8753C74.6786 62.9318 74.025 63.4046 73.0392 64.3117L72.8842 64.3302L72.8619 63.8769ZM84.8487 48.1724L81.1597 53.2372C78.4011 56.3173 76.9055 57.8671 76.6728 57.9051C72.2859 62.0247 69.5604 64.1603 68.4858 64.3117L68.3308 64.3302C68.4639 63.4801 70.4247 56.6576 74.2134 43.8444C75.864 43.599 78.4787 42.2571 82.0679 39.8382L82.9652 39.7057C84.7711 39.4413 86.1225 40.0461 87.0088 41.5009L87.0533 42.427C86.3774 45.6775 85.6462 47.5862 84.8487 48.1724ZM77.6033 41.2175L78.1796 41.1231L78.1904 41.369L77.6144 41.4634L77.6033 41.2175ZM85.9895 38.7796L86.4328 38.7232C86.8427 39.063 87.0533 39.3654 87.0641 39.6113L87.0753 39.8192C86.6877 39.8756 86.3221 39.5358 85.9895 38.7796ZM87.1529 27.2703C86.765 28.0644 85.7127 29.4248 83.9956 31.315C83.4196 31.4094 81.2924 32.8078 77.6144 35.5291C77.4372 35.4156 77.2377 35.3781 77.0273 35.3966L77.0051 34.9244C76.9608 34.0173 77.1934 32.8833 77.7032 31.5039C77.9912 28.8956 78.3123 27.4407 78.6448 27.1004L81.7356 15.3076C81.7022 14.6085 82.3559 14.0417 83.6853 13.6069L84.1286 13.5504L84.1617 14.2681C85.4689 13.9093 86.2887 13.7014 86.6212 13.6449C89.0584 13.2855 90.3322 14.1172 90.4321 16.1583L90.7201 16.1203L90.6647 14.9863L90.9527 14.9488C91.6617 15.61 92.0385 16.4037 92.0827 17.3487C92.1158 18.0289 91.9166 18.8605 91.4956 19.8246C91.3072 19.8621 91.1965 19.6357 91.1742 19.1439L90.8862 19.1819L90.7977 20.5993C89.5679 23.7933 88.6705 25.4371 88.1057 25.5131C87.607 26.6656 87.2968 27.2518 87.1529 27.2703ZM88.449 35.1323L88.4159 34.4141L88.7039 34.3766L89.3241 35.0188C89.3352 35.3212 89.2468 35.4916 89.0584 35.5291C88.7924 35.2457 88.5932 35.1133 88.449 35.1323ZM36.8795 81.0367L36.5915 81.1501L36.3478 81.509C36.3923 81.8113 36.503 81.9248 36.6914 81.8493C36.8795 81.7739 36.9571 81.5849 36.9129 81.2826L36.8795 81.0367ZM35.7829 77.3139L35.816 77.5593C36.0044 77.4838 36.082 77.2949 36.0378 76.9925L36.0044 76.7466C35.8271 76.8221 35.7495 77.0115 35.7829 77.3139ZM43.6263 52.1786L43.8369 51.9517C43.7924 51.9517 43.7593 51.9327 43.7259 51.9142C43.6485 51.9517 43.6151 52.0462 43.6263 52.1786ZM43.582 45.6585L43.9143 45.5266L43.8478 45.0348L43.5155 45.1673L43.582 45.6585ZM121.872 64.746L121.119 64.5951L120.986 65.0863L120.997 65.3322L125.484 64.6895L125.462 64.2172L121.872 64.746ZM125.971 64.1603L125.993 64.6325H126.037L126.016 64.1603H125.971ZM144.793 59.9646L144.815 60.4374L145.303 60.5884L145.281 60.1161L144.793 59.9646ZM144.106 60.0591C140.739 61.3445 140.318 61.1176 139.609 61.2121L139.631 61.6844L139.941 61.6469L140.107 61.6279L140.063 61.5714L140.428 61.3255C143.763 60.7018 144.151 60.9287 144.117 60.286L144.106 60.0591ZM123.889 51.7063L123.589 51.5364C123.346 52.6509 123.224 53.3126 123.235 53.5015L123.246 53.7094C123.479 53.6904 123.689 53.0103 123.889 51.7063ZM119.834 47.9835L119.823 47.7376L119.668 47.7566L119.391 48.059L119.546 48.5123C119.756 48.4748 119.856 48.3044 119.834 47.9835ZM128.641 63.5175L128.619 63.0453L128.53 63.0642L128.552 63.5365L128.641 63.5175ZM146.92 56.4877L147.131 56.4497C147.253 56.4307 147.308 56.2608 147.297 55.9584L147.175 55.5046C146.411 55.6181 146.056 55.6751 145.436 56.2608L145.425 56.0149L144.505 56.1663C144.483 55.6936 144.405 55.4482 144.284 55.4672L143.807 55.5426C143.253 55.6181 142.987 55.5806 142.71 55.9394C142.699 55.7695 142.666 55.6935 142.611 55.6935L142.079 55.7695L141.769 56.0719C141.758 55.9015 141.725 55.826 141.669 55.826L141.481 56.1094L141.47 55.864L140.728 55.7695L140.55 55.7885L140.572 56.2608L140.949 56.4307L141.303 56.3932C141.425 56.5252 141.558 56.5632 141.713 56.5442L142.024 56.2798L142.035 56.4877C140.295 57.2244 140.307 57.0924 139.11 57.4323C138.977 57.2813 138.877 57.2059 138.811 57.2244L138.789 57.2623C138.656 57.2434 138.578 57.0924 138.567 56.8465L139.188 56.7141C139.232 56.7141 139.265 56.7901 139.608 56.9035C140.107 56.4877 140.129 56.3173 140.395 56.2798L140.373 55.807C138.667 56.3742 139.354 55.9959 137.216 56.3173L137.116 56.3363L137.094 55.864C139.841 55.2967 138.922 55.6181 139.863 55.1648C139.874 55.3347 139.908 55.4102 139.963 55.4102C140.064 55.2344 140.197 55.1213 140.34 55.0888L140.528 55.0703C141.492 54.9379 141.813 55.2592 143.719 54.3521L143.73 54.5601L144.04 54.2952L144.328 54.2577C144.306 53.7849 144.727 53.7094 144.871 53.6904L144.849 53.1802C141.503 54.3332 140.628 54.0118 139.697 54.4656L139.686 54.2577C138.811 54.5221 138.778 54.4086 138.556 54.4276C138.49 54.4466 138.39 54.5411 138.279 54.73C138.268 54.5601 138.235 54.4841 138.168 54.4841C138.135 54.4841 138.124 54.5031 138.113 54.5031L135.277 55.2967C135.266 55.1648 135.233 55.0888 135.166 55.1078C133.693 55.6371 134.091 55.7315 132.12 56.0339C132.031 56.0529 131.909 56.1284 131.754 56.2983C131.743 56.1663 131.699 56.0909 131.599 56.1094L130.391 56.2798L129.583 56.6196C129.572 56.4877 129.527 56.4117 129.428 56.4307C128.973 56.6386 128.575 56.7711 128.253 56.8085H128.231C128.032 56.8465 128.331 56.7141 128.176 56.6011L127.932 56.8465C127.578 56.9035 127.766 56.8085 126.547 56.8275C124.409 57.2813 124.642 57.3378 124.409 57.3568L123.611 57.2623C123.623 57.3948 123.578 57.4892 123.49 57.4892C122.581 57.2813 122.116 57.0354 122.105 56.7521C122.227 55.2782 122.437 54.5221 122.736 54.4841L122.892 54.4656L122.759 54.9569L122.914 54.9379C123.202 54.673 123.335 54.4276 123.323 54.2007L123.301 53.6904L123.013 53.7284L122.991 53.2556C122.969 52.8968 123.002 52.5754 123.08 52.3111L123.733 50.5154L123.756 50.9882L124.066 50.9502L124.044 50.4779L123.866 50.0431C124.099 49.7027 124.276 49.5138 124.42 49.4948L124.409 49.2494L123.988 49.3059L123.955 48.5877C124.797 45.6021 125.196 43.8633 125.174 43.3721L125.473 43.58C125.661 43.561 125.749 43.3721 125.739 43.0317L125.45 43.0697L125.44 42.8618C125.419 42.5167 125.457 42.1689 125.55 41.8602C126.004 41.0476 126.215 40.235 126.17 39.3844C126.259 39.3654 126.303 39.4413 126.315 39.6113C126.703 39.2334 127.002 38.2314 127.223 36.5686C127.91 34.4521 128.885 30.2185 130.159 23.8878C132.596 12.6998 132.496 11.5093 132.84 8.86353L132.552 8.90101C132.574 9.24136 132.53 9.56272 132.441 9.86508C132.241 9.73264 132.086 9.65717 131.976 9.67616L131.965 9.46826C131.92 8.50419 132.153 7.35171 132.685 5.99082L132.818 5.97182L133.061 7.5971L133.349 7.55961C133.338 7.44616 133.416 6.80345 133.571 5.61299C133.56 5.3671 133.449 5.21616 133.228 5.19717L132.951 5.49954C132.928 5.15919 132.94 4.27109 132.973 2.85372L132.829 2.87271C132.585 2.4569 132.463 2.11655 132.452 1.83318L130.868 2.09756C130.857 1.90864 130.801 1.62527 130.69 1.26593C130.68 1.02054 131.034 0.774653 131.765 0.529263L132.086 0.73717L132.386 0.434805C132.397 0.604729 132.452 0.680195 132.563 0.661204L132.862 0.358839C132.873 0.529263 132.928 0.604729 133.039 0.585738L133.183 0.566746L133.161 0.0189915C132.94 0.0564747 132.352 0.0564747 131.422 0L131.123 0.340348L131.111 0.037983C123.678 1.07702 119.457 1.66325 118.449 1.83318C118.316 1.85217 117.795 1.83318 116.876 1.7952C116.887 2.0031 116.776 2.11655 116.555 2.15453L116.233 1.90864L115.148 2.38143C114.893 2.41892 114.461 2.39992 113.863 2.28648C113.696 2.51337 113.497 2.64581 113.253 2.6838C113.12 2.70229 114.838 2.53237 116.433 2.34345C116.267 2.57035 116.012 2.70229 115.657 2.75926C115.414 2.79675 115.203 2.74027 115.026 2.57035C114.782 2.75926 113.996 3.06163 112.677 3.51493L112.356 3.30702L107.171 4.66791C106.972 4.49798 106.739 4.44101 106.473 4.47899C106.196 4.51648 105.731 4.6869 105.089 4.98926L102.585 6.76547L102.773 7.29473C102.895 7.27574 103.072 7.16229 103.283 6.95438L104.169 7.08683L104.058 8.50419C103.239 9.12791 102.762 10.054 102.629 11.2255C101.4 12.1516 100.79 12.8133 100.79 13.2101L100.801 13.4555L100.99 13.437L101.322 13.1346L101.71 13.9283L101.765 15.0243C101.787 15.3646 99.7157 22.7913 95.5723 37.3058C91.9831 51.2905 90.0996 58.9446 89.9224 60.324C88.6928 60.9097 87.9838 61.7603 87.7731 62.8943C87.7954 63.2532 88.161 63.4991 88.87 63.5935L88.9031 64.1413L88.582 65.0484L88.6374 66.1449C88.6705 66.7116 89.5679 67.1464 91.3295 67.4488C91.3184 67.2599 91.3737 67.1464 91.4956 67.1274C91.5287 67.8076 91.418 69.1305 91.1631 71.0961L91.3515 71.0772C92.0827 69.3764 92.4261 68.2044 92.393 67.5622L92.5479 67.5432C92.7252 67.5242 92.9136 67.8646 93.135 68.6013C92.9136 68.7527 92.1381 71.7574 90.8086 77.6347L90.997 78.164L91.1853 78.145C92.814 71.1151 93.8332 67.2219 94.2539 66.4847C96.3923 66.1634 100.092 65.5211 105.343 64.5571L105.676 64.2167C105.687 64.4061 105.753 64.5006 105.875 64.4816L106.219 64.4246L106.551 64.0848C106.562 64.2737 106.629 64.3682 106.75 64.3492L110.728 63.7634C111.78 63.612 112.279 63.0642 112.234 62.1382C112.223 61.8923 112.843 61.6089 114.095 61.3065C114.217 61.2875 114.394 61.3445 114.638 61.4765C114.627 61.3065 115.259 61.1366 116.522 60.9477C116.555 59.8137 116.765 59.209 117.142 59.152L117.109 58.6042C116.754 58.6607 116.355 58.8122 115.89 59.0765C115.059 59.0011 114.527 58.8876 114.306 58.7552C114.084 58.9631 113.918 59.0765 113.796 59.0955L111.027 59.2465L110.694 59.5488C110.683 59.3789 110.617 59.3034 110.495 59.3224L110.34 59.3409L109.985 59.6438C109.974 59.4734 109.686 59.3409 109.11 59.209L108.756 59.5678L108.069 59.6623L108.058 59.3599C111.625 58.6987 113.386 57.8671 113.342 56.8845C113.575 56.8465 113.696 57.0354 113.718 57.4323L114.76 56.979L114.727 56.4307L106.185 56.8275C106.196 57.0165 106.141 57.1299 106.019 57.1489L104.978 56.998C104.712 57.0354 104.491 57.1679 104.313 57.3948L103.925 57.1489C102.851 57.3003 102.053 57.5267 101.521 57.8106C100.79 57.7161 99.9814 57.7346 99.0841 57.8671L97.1678 58.1504L96.2815 57.9805C96.237 57.0165 97.3339 52.2731 99.5938 43.7689C100.247 40.8962 100.846 39.101 101.422 38.4208C101.544 38.4018 101.721 38.4773 101.965 38.6472L103.327 37.8535L104.025 38.0425C105.2 37.8725 106.562 37.3058 108.124 36.3227C108.512 36.2663 108.8 36.3042 109.01 36.4552L110.052 36.0394L113.154 35.5856C114.472 35.3966 115.901 34.9054 117.452 34.0927L117.419 33.545C116.843 33.6394 116.544 33.469 116.522 33.0722C116.488 32.3355 116.067 32.0326 115.259 32.1461L115.225 31.5983L116.078 31.1825L118.316 30.8612L118.283 30.3134C118.194 30.3319 117.74 30.3134 116.898 30.2564L116.865 29.6707L117.729 29.5383C117.962 29.5008 118.061 29.3114 118.039 28.9335C116.876 28.99 116.289 28.8956 116.278 28.6312C108.168 29.3114 104.103 29.4438 104.081 29.009C103.959 29.028 103.792 29.1604 103.571 29.3873L103.361 28.8201C105.509 21.0341 106.772 17.1028 107.138 17.0464C107.149 17.3487 107.06 17.84 106.872 18.5017L106.883 18.7471L107.227 18.6906C108.08 15.2132 108.8 13.418 109.398 13.3425C111.946 12.9642 109.044 12.6808 114.494 11.2255C114.716 11.3959 114.871 11.4714 114.981 11.4524C117.12 10.7152 120.1 9.94055 123.922 9.1469L123.899 8.59865L121.861 8.92L121.839 8.37175C122.083 8.33427 122.282 8.20183 122.448 7.97493L122.459 8.27729C122.57 8.2588 122.725 8.12636 122.925 7.89946C123.279 7.84299 123.545 7.89946 123.733 8.06938C124.442 7.74853 125.019 7.55911 125.44 7.48365L126.713 7.27574C127.024 6.93589 127.168 6.63353 127.157 6.34966L127.145 6.10427C126.824 6.16074 126.459 6.12326 126.027 5.99082C126.016 5.68845 126.104 5.48055 126.315 5.38609L128.685 5.00826L129.771 4.53547C129.782 4.74337 129.838 4.81884 129.926 4.81884C130.037 4.80035 130.192 4.66791 130.391 4.44101C130.447 4.46 130.513 4.46 130.569 4.47899C130.425 4.98926 130.259 5.72643 130.092 6.69L129.782 6.72799C129.76 6.36865 129.705 6.04729 129.605 5.76392L129.45 5.78291C126.57 19.4653 125.284 25.8344 122.626 36.3417C122.138 39.0255 121.728 40.5183 121.374 40.8397C121.385 41.1421 121.496 41.293 121.684 41.2555C121.75 42.5784 121.573 43.8823 121.141 45.1673C119.911 51.2151 119.091 54.5221 118.671 55.1268L118.948 57.9805C118.958 58.2829 118.87 58.4528 118.682 58.4908L118.394 58.5288C118.349 57.7346 118.183 57.3568 117.884 57.4138L117.729 57.4323C117.352 58.4338 117.064 59.5868 116.876 60.9287L117.164 60.8907C117.552 60.4564 117.729 59.9461 117.696 59.3599L118.272 59.2654L118.604 59.4734C118.338 60.1915 118.216 60.7588 118.239 61.1931L118.394 61.6469L118.017 63.1587L118.028 63.4046C118.361 63.3476 118.726 63.5365 119.114 63.9334C119.379 63.8959 119.668 63.688 119.989 63.3286C120.321 63.2722 121.562 63.2532 123.7 63.2532L124.775 62.6294C126.082 62.6105 126.292 62.6674 127.422 62.497L127.888 62.4215L128.131 62.1382L128.142 62.384C129.328 62.2136 129.405 62.3461 130.336 62.535L130.347 62.7809L129.693 62.8753L129.716 63.3476C129.915 63.3096 130.092 63.2152 130.236 63.0073C130.402 62.9888 130.502 63.1397 130.513 63.4801C130.247 63.5175 129.948 63.631 129.616 63.8199L129.328 63.65C128.874 63.8579 128.973 63.9144 128.663 63.9523L128.209 63.8014C128.22 63.9334 128.176 64.0278 128.098 64.0278C128.109 64.3302 128.209 64.4816 128.375 64.4626L128.84 64.3872L131.267 64.0278L132.186 63.688C132.197 63.8199 132.23 63.8959 132.308 63.8769L132.751 63.5935L133.582 63.4801C134.225 63.3856 134.213 63.3096 135.609 62.9318C135.598 62.7809 135.631 62.7239 135.698 62.7049L135.709 62.9128C137.98 62.2516 138.124 62.2136 138.49 62.0057L138.523 62.1192C139.088 61.8923 138.767 61.9492 138.922 61.7603C138.933 61.9303 138.966 62.0057 139.021 62.0057L139.42 61.9492L139.398 61.439L138.589 61.42L138.578 61.382C138.545 61.401 138.523 61.401 138.49 61.42H138.379V61.458C137.836 61.6469 137.825 61.5144 137.47 61.5714L135.443 61.7603L135.432 61.5144L136.562 61.2501L136.972 61.1931L137.205 60.9097L137.216 61.1556C138.811 60.9287 139.376 61.6089 146.754 58.9256C147.153 58.8686 147.12 58.3019 147.374 57.1299C147.239 57.1457 147.104 57.0932 146.987 56.979C146.377 57.3758 146.056 57.1869 144.882 57.5082C144.782 57.5272 144.705 57.3758 144.671 57.0734L144.66 56.8655L145.79 56.922C146.001 56.8845 146.411 56.8275 147.02 56.2418C147.02 56.4117 146.787 56.5062 146.92 56.4877H146.92ZM92.3707 57.9805L91.8501 58.056C91.8278 57.6972 92.105 56.3363 92.681 54.0118L93.0243 53.9553C93.0354 54.5031 92.8248 55.845 92.3707 57.9805ZM93.0023 53.6715L92.9912 53.4261C92.9801 53.1237 93.0908 52.9158 93.3346 52.8213L93.3457 53.0667C93.3568 53.4261 93.2458 53.634 93.0023 53.6715ZM99.9261 62.7994L99.9372 63.0453L99.0732 63.1777L99.0621 62.9318L99.9261 62.7994ZM98.8849 62.6484C98.896 62.9508 98.63 63.2911 98.054 63.631L96.9902 63.4991L96.6469 63.5555L96.6138 63.0073L98.8849 62.6484ZM105.886 7.67256L105.366 7.74853L105.354 7.44616C105.343 7.1438 105.443 6.93589 105.665 6.84143L105.853 6.82244L106.208 7.06783C106.218 7.42717 106.119 7.63508 105.886 7.67256ZM113.807 5.02675L113.973 5.00826L113.996 5.55601L113.519 5.63148C113.508 5.32911 113.597 5.12171 113.807 5.02675ZM111.813 6.21771L111.027 6.06628L111.016 5.82089C112.046 5.66946 112.389 5.48054 113.021 5.17818C113.032 5.38609 113.142 5.46155 113.342 5.42407L113.364 5.97182L113.054 6.0288C112.81 6.06628 112.6 6.00981 112.422 5.83938C112.234 6.04729 112.035 6.17973 111.813 6.21771ZM112.799 11.1125L112.788 10.8666L114.062 10.6587L114.073 10.9046L112.799 11.1125ZM114.162 9.22237L114.151 8.92L114.771 8.82555L114.782 9.12791L114.162 9.22237ZM114.306 5.51853L114.139 5.53702L114.284 4.95128L115.702 4.72438L115.713 5.02675C115.347 5.08372 114.871 5.25365 114.306 5.51853ZM115.026 10.7342L115.004 10.1864L115.624 10.092C115.835 10.054 115.945 10.2239 115.956 10.6023L115.026 10.7342ZM118.781 2.0031L117.984 2.38143L117.84 2.39992C117.463 2.4569 116.976 2.43791 116.399 2.34345C117.43 2.23 118.416 2.09756 118.781 2.0031ZM117.928 8.05089L117.94 8.29628L116.843 8.46671L116.832 8.22082L117.928 8.05089ZM119.723 9.50574C119.712 9.27934 119.501 9.12791 119.07 9.05244L117.973 9.58171L117.131 9.63818C116.942 9.41128 116.843 9.26035 116.832 9.1469L117.807 9.24136L120 8.63663L121.119 8.7121L121.13 9.01446C120.576 9.10892 120.111 9.27934 119.723 9.50574ZM131.012 4.53547C131.145 4.55446 131.233 4.55446 131.267 4.55446C131.654 3.91175 132.086 3.40148 132.585 3.04264C132.186 6.0288 131.566 8.23981 130.713 9.67616L130.092 9.03345C130.613 6.78446 130.923 5.29163 131.012 4.53547ZM129.106 10.1105L129.261 10.092C129.051 10.7722 128.863 11.131 128.708 11.15L128.674 10.4318C128.774 10.4318 128.918 10.3184 129.106 10.1105ZM127.877 15.1187C128.176 13.0776 128.464 11.9252 128.73 11.6228L128.741 11.8682C128.586 13.7578 128.342 14.7599 128.021 14.8354L128.076 16.0258C127.81 16.6685 127.688 17.1598 127.699 17.5376L127.544 17.5566L127.456 15.9124C127.633 15.8749 127.777 15.61 127.877 15.1187ZM127.4 17.84C127.411 18.1234 127.3 18.7851 127.079 19.8056L126.924 19.8246L126.891 19.1064C127.101 18.2748 127.279 17.859 127.4 17.84ZM118.46 62.1002L118.449 61.8923L118.737 61.8548L118.77 62.573C118.615 62.592 118.504 62.4405 118.46 62.1002ZM131.233 62.6674C131.222 62.497 131.178 62.4215 131.078 62.4405L130.358 62.554L130.347 62.3081H130.414L132.12 62.0627L132.131 62.3081C131.632 62.3461 131.333 62.4785 131.233 62.6674ZM130.38 62.0627C130.447 62.1192 130.414 62.1761 130.38 62.2136C130.347 62.1946 130.303 62.1382 130.38 62.0627ZM130.469 58.6607L129.516 58.7932L129.505 58.5473L130.369 58.4153L131.123 58.094C131.134 58.2449 131.178 58.3019 131.278 58.2829C132.175 58.0185 132.086 57.9425 132.519 57.8861C132.662 57.8671 132.751 58.0185 132.762 58.3209L130.469 58.6607ZM133.803 58.1694C133.272 58.075 133.239 57.9995 132.862 58.056L132.851 57.8481L133.704 57.7161L133.715 57.924C133.626 57.9425 133.948 57.9805 133.803 58.1694ZM133.87 57.9051L133.859 57.6972L134.324 57.6212L134.335 57.8291L133.87 57.9051ZM134.9 57.7536L134.889 57.5457C134.967 57.5272 135.078 57.4323 135.221 57.2434C135.454 57.2059 135.576 57.4703 135.598 57.7726L134.9 57.7536ZM136.219 57.4703L136.208 57.2244L136.772 57.1489L136.784 57.3948L136.219 57.4703ZM137.005 57.3568C136.994 57.0734 137.06 56.9035 137.205 56.8655L137.393 57.2813C137.382 57.1489 137.415 57.0734 137.481 57.0544L137.626 57.5082L137.005 57.3568ZM147.906 55.1648L147.917 55.1458V55.1268C147.917 55.1268 147.906 55.1458 147.906 55.1648ZM148.106 54.9189C148.194 54.8244 148.239 54.73 148.028 54.6735C147.928 54.8624 148.139 54.9189 147.917 54.9379L147.928 55.1078C147.95 55.0703 148.006 55.0134 148.05 54.9569L147.928 55.1268V55.1458L147.696 55.6561L148.161 55.3727H148.216L148.194 54.8999L148.106 54.9189ZM148.914 55.9964L148.826 56.0149L148.848 56.4877L149.501 56.3932C149.491 56.0909 149.058 55.9964 148.914 55.9964Z" fill="#2563EB"/>
</g>
<defs>
<clipPath id="clip0_13_203">
<rect width="150" height="100" fill="white"/>
</clipPath>
</defs>
</svg>
