<svg width="150" height="100" viewBox="0 0 150 100" fill="none" xmlns="http://www.w3.org/2000/svg">
<g clip-path="url(#clip0_13_208)">
<path d="M0.976172 77.5858V39.3678H21.8191V37.1323H0.976172V2.26644H23.1369V0.0316162H0V79.8207H23.332V77.5858H0.976172ZM42.1251 22.3812L33.4854 48.4191L25.0406 22.3819H23.7715L32.8995 50.0959L22.8926 79.82H24.0642L33.4849 51.7706L42.9545 79.82H44.1747L34.1194 50.0945L43.2961 22.3805H42.1248L42.1251 22.3812ZM47.1038 99.4887V63.7295H47.2014C47.7873 68.9443 48.9425 73.135 50.6672 76.3014C52.3919 79.4672 54.5883 81.0508 57.2566 81.0508C58.9813 81.0508 60.5109 80.2499 61.8451 78.6482C63.1793 77.0466 64.2937 74.8674 65.1888 72.1108C66.0835 69.3541 66.767 66.1508 67.239 62.5001C67.7106 58.8501 67.9468 55.0129 67.9468 50.9906C67.9468 46.6692 67.7024 42.6831 67.2144 39.0331C66.7263 35.3824 66.0185 32.2159 65.0912 29.5344C64.1637 26.8522 63.041 24.7656 61.7229 23.2766C60.4052 21.7863 58.9163 21.0411 57.2566 21.0411C55.9875 21.0411 54.808 21.4697 53.7179 22.3262C52.6277 23.1834 51.6598 24.3934 50.8137 25.9581C49.9626 27.5349 49.2218 29.4003 48.617 31.4895C47.9988 33.613 47.5269 35.9411 47.2014 38.4744H47.1038V22.3812H46.1276V99.4887H47.1038ZM57.2566 78.9266C54.198 78.9266 51.7409 76.5241 49.8861 71.7191C48.0313 66.9141 47.1038 60.0037 47.1038 50.9893C47.1038 47.2641 47.3317 43.7254 47.7873 40.3732C48.2429 37.0209 48.9018 34.0778 49.764 31.5452C50.6265 29.0119 51.6923 27.0004 52.9611 25.5108C54.2303 24.0204 55.6623 23.2753 57.2566 23.2753C58.8838 23.2753 60.3076 24.0204 61.5278 25.5108C62.748 27.0004 63.757 29.0307 64.5542 31.6009C65.3514 34.1711 65.9534 37.1142 66.3604 40.4288C66.767 43.7442 66.9703 47.2641 66.9703 50.9893C66.9703 54.3422 66.7834 57.6763 66.409 60.991C66.0349 64.3063 65.4571 67.2863 64.6761 69.9316C63.8953 72.5756 62.8948 74.736 61.6743 76.4128C60.4538 78.0889 58.9813 78.9266 57.2566 78.9266ZM73.316 79.8207V47.3017C73.316 44.1728 73.5111 41.1177 73.902 38.1383C74.2922 35.1584 74.8942 32.5318 75.7078 30.2601C76.5214 27.9877 77.5544 26.1996 78.8074 24.8957C80.0602 23.5919 81.549 23.0519 83.2737 23.2753V21.0405C81.7767 20.9667 80.4671 21.3382 79.3444 22.1579C78.2215 22.9775 77.2535 24.0949 76.4399 25.5108C75.6264 26.926 74.9757 28.5833 74.4876 30.4835C73.9999 32.3806 73.6379 34.433 73.4136 36.5736H73.316V22.3812H72.3398V79.8213L73.316 79.8207ZM84.4939 51.548H105.483C105.548 47.5995 105.378 43.8005 104.971 40.1498C104.564 36.4991 103.913 33.2582 103.018 30.4278C102.123 27.5967 100.968 25.3243 99.5525 23.6106C98.1369 21.897 96.4529 21.0405 94.5006 21.0405C93.1011 21.0405 91.7344 21.7112 90.4002 23.0526C89.066 24.3934 87.8944 26.3485 86.8857 28.9187C85.8771 31.4889 85.0635 34.6365 84.4453 38.3624C83.8271 42.0868 83.5178 46.3332 83.5178 51.1013C83.5178 55.3476 83.7293 59.3149 84.1523 63.0025C84.5754 66.6901 85.2261 69.8941 86.1047 72.6131C86.9836 75.3322 88.1145 77.4369 89.4973 78.9266C90.8801 80.4169 92.548 81.1245 94.5006 81.0501C97.3641 81.0501 99.7723 79.2056 101.725 75.5187C103.677 71.8304 104.832 66.6344 105.19 59.9292H104.214C103.791 66.2621 102.709 71.0115 100.968 74.1773C99.2271 77.3437 97.0389 78.9266 94.4027 78.9266C92.613 78.9266 91.0998 78.219 89.8632 76.8038C88.6269 75.3886 87.6179 73.4509 86.8368 70.9927C86.0561 68.5339 85.4783 65.6471 85.1042 62.3317C84.7298 59.0171 84.5265 55.422 84.4939 51.548ZM104.507 49.3131H84.4942C84.5915 45.2902 84.917 41.677 85.4701 38.4737C86.0235 35.2697 86.7475 32.5318 87.6425 30.2601C88.5372 27.9877 89.5787 26.2559 90.7664 25.0634C91.9541 23.8715 93.2314 23.2753 94.5981 23.2753C96.2253 23.2753 97.6567 23.9648 98.8937 25.3431C100.13 26.7214 101.163 28.6028 101.993 30.9865C102.823 33.3702 103.449 36.1456 103.872 39.3114C104.295 42.4779 104.507 45.812 104.507 49.3131ZM125.74 39.3678H126.717C126.717 32.9604 125.903 28.3043 124.276 25.3988C122.649 22.4932 120.436 21.0405 117.638 21.0405C116.075 21.0405 114.758 21.4878 113.684 22.3819C112.61 23.2753 111.731 24.4303 111.048 25.8455C110.365 27.2607 109.876 28.8255 109.584 30.5391C109.291 32.2528 109.144 33.892 109.144 35.4562C109.144 38.585 109.388 41.0808 109.876 42.9434C110.365 44.8059 111.129 46.2587 112.17 47.3017C112.886 48.0462 113.7 48.7169 114.611 49.3138C115.522 49.9094 116.58 50.5426 117.784 51.2126C118.858 51.8095 119.915 52.4051 120.957 53.0007C121.998 53.597 122.917 54.3978 123.715 55.4032C124.512 56.4093 125.163 57.6944 125.667 59.2592C126.171 60.8233 126.424 62.8723 126.424 65.405C126.424 67.8638 126.172 69.9497 125.667 71.6627C125.167 73.3675 124.509 74.7986 123.739 75.854C122.958 76.9339 122.087 77.716 121.128 78.2002C120.168 78.6845 119.232 78.9266 118.321 78.9266C115.36 78.9266 113.09 77.4182 111.512 74.4013C109.933 71.3837 109.144 66.6344 109.144 60.1526H108.168C108.168 67.3795 109.022 72.6688 110.73 76.0217C112.439 79.374 114.969 81.0501 118.321 81.0501C119.395 81.0501 120.477 80.7704 121.567 80.2117C122.657 79.653 123.633 78.7408 124.496 77.4738C125.35 76.2248 126.069 74.5427 126.594 72.5575C127.131 70.5453 127.4 68.0872 127.4 65.1816C127.4 62.425 127.164 60.1901 126.692 58.4765C126.22 56.7635 125.602 55.3476 124.837 54.2302C124.073 53.1128 123.21 52.2375 122.25 51.6043C121.285 50.9674 120.317 50.3526 119.346 49.7598C118.151 49.0422 116.955 48.3346 115.758 47.637C114.733 47.0408 113.781 46.3332 112.903 45.5135C112.057 44.6939 111.381 43.5208 110.877 41.9936C110.372 40.4664 110.121 38.2872 110.121 35.4562C110.121 34.935 110.186 34.0034 110.316 32.6626C110.446 31.3212 110.755 29.9616 111.243 28.5833C111.731 27.2057 112.479 25.9763 113.488 24.8957C114.497 23.8159 115.88 23.2753 117.638 23.2753C118.842 23.2753 119.94 23.5737 120.932 24.1693C121.925 24.7656 122.779 25.7153 123.495 27.0192C124.211 28.3231 124.764 29.9804 125.154 31.9919C125.545 34.0041 125.74 36.4622 125.74 39.3678ZM148.34 39.3678H149.316C149.316 32.9604 148.503 28.3043 146.876 25.3988C145.249 22.4932 143.036 21.0405 140.237 21.0405C138.676 21.0405 137.358 21.4878 136.284 22.3819C135.21 23.2753 134.331 24.4303 133.648 25.8455C132.964 27.2607 132.476 28.8255 132.183 30.5391C131.89 32.2528 131.744 33.892 131.744 35.4562C131.744 38.585 131.988 41.0808 132.477 42.9434C132.964 44.8059 133.729 46.2587 134.771 47.3017C135.487 48.0462 136.3 48.7169 137.211 49.3138C138.122 49.9094 139.18 50.5426 140.384 51.2126C141.458 51.8095 142.516 52.4051 143.557 53.0007C144.598 53.597 145.517 54.3978 146.315 55.4032C147.112 56.4093 147.763 57.6944 148.267 59.2592C148.772 60.8233 149.024 62.8723 149.024 65.405C149.024 67.8638 148.772 69.9497 148.267 71.6627C147.767 73.3674 147.109 74.7985 146.339 75.854C145.558 76.9339 144.688 77.716 143.728 78.2002C142.768 78.6845 141.832 78.9266 140.921 78.9266C137.96 78.9266 135.69 77.4182 134.112 74.4013C132.533 71.3837 131.744 66.6344 131.744 60.1526H130.768C130.768 67.3795 131.622 72.6688 133.331 76.0217C135.039 79.374 137.569 81.0501 140.921 81.0501C141.995 81.0501 143.077 80.7704 144.167 80.2117C145.257 79.653 146.233 78.7408 147.096 77.4738C147.951 76.2248 148.669 74.5427 149.195 72.5575C149.732 70.5453 150 68.0872 150 65.1816C150 62.425 149.764 60.1901 149.292 58.4765C148.821 56.7635 148.202 55.3476 147.437 54.2302C146.673 53.1128 145.81 52.2375 144.85 51.6043C143.885 50.9674 142.917 50.3526 141.946 49.7598C140.751 49.0422 139.555 48.3346 138.358 47.637C137.333 47.0408 136.381 46.3332 135.503 45.5135C134.657 44.6939 133.981 43.5208 133.477 41.9936C132.973 40.4664 132.72 38.2872 132.72 35.4562C132.72 34.935 132.785 34.0034 132.916 32.6626C133.046 31.3212 133.355 29.9616 133.843 28.5833C134.331 27.2057 135.08 25.9763 136.088 24.8957C137.097 23.8159 138.48 23.2753 140.238 23.2753C141.442 23.2753 142.54 23.5737 143.532 24.1693C144.525 24.7656 145.379 25.7153 146.095 27.0192C146.811 28.3231 147.364 29.9804 147.755 31.9919C148.145 34.0041 148.341 36.4622 148.341 39.3678H148.34Z" fill="#2563EB"/>
</g>
<defs>
<clipPath id="clip0_13_208">
<rect width="150" height="100" fill="white"/>
</clipPath>
</defs>
</svg>
