<svg width="100" height="100" viewBox="0 0 100 100" fill="none" xmlns="http://www.w3.org/2000/svg">
<path d="M96.1412 13.9181L99.2411 1.45903L99.1064 0.687127L68.4396 13.2256C71.7095 5.88625 70.5862 0 70.5862 0C70.5862 0 60.793 9.70515 53.3869 9.45143C45.9811 9.19712 43.5937 6.12982 32.2374 11.7516C20.8812 17.3692 17.6729 34.6131 14.3802 38.3173C11.0876 42.0216 0.758942 54.0884 0.758942 54.0884L0.781254 54.3028L10.0936 49.7018C10.0936 49.7018 7.5392 53.4359 2.11307 64.7846L1.85956 64.421L1.86917 64.501C1.86917 64.501 6.23009 74.8431 10.5106 72.931C10.9407 72.737 11.425 72.4182 11.9544 71.9997C13.6778 73.4892 15.9271 74.953 18.4107 75.3559C18.4107 75.3559 16.7296 72.3233 15.327 68.8727C15.7055 68.4942 16.0941 68.1008 16.4888 67.7026L16.3057 67.902L19.8514 69.9234L19.4602 64.75C19.4729 64.7398 19.4825 64.7249 19.4952 64.7147L22.9801 66.7015L22.547 61.9961C22.9821 61.6422 23.4228 61.3052 23.8688 60.9854L27.5015 39.6629L42.5219 23.7629L41.3282 28.4241C38.2829 40.0462 32.5648 42.7899 32.5648 42.7899L30.1774 44.194C28.4032 47.4506 27.6553 48.2523 27.046 59.1825C28.477 58.6249 29.8439 58.49 31.0822 59.0082C37.5001 61.6922 39.7236 73.6934 37.994 77.0144C37.5609 77.846 36.531 79.265 35.2315 80.9336H32.626L32.5906 84.2098C32.5006 84.3196 32.4109 84.4241 32.324 84.5334H29.6734L29.6415 87.7302C29.4072 88.0096 29.173 88.2782 28.9487 88.5421C26.4585 88.6215 23.304 85.2503 23.304 85.2503C23.304 88.3182 24.9505 93.0386 24.9505 93.0386C24.9505 93.0386 25.0594 92.9592 25.2421 92.8195C25.0817 93.004 24.9921 93.1037 24.9921 93.1037C24.9921 93.1037 31.6565 100 35.854 97.4455C39.5855 95.1746 49.2475 83.3531 57.5874 77.7564L82.8246 67.4388L86.1522 54.0586L66.9185 61.9208V49.906L89.4863 40.6784L92.8139 27.2982L66.9251 37.8851V25.8637L96.1412 13.9181Z" fill="#2563EB"/>
</svg>
