<svg width="101" height="100" viewBox="0 0 101 100" fill="none" xmlns="http://www.w3.org/2000/svg">
<path d="M8.57925 54.4163C6.14025 51.9772 6.14025 48.0228 8.57925 45.5837L46.0837 8.07925C48.5228 5.64025 52.4772 5.64025 54.9163 8.07925L92.4206 45.5837C94.8597 48.0228 94.8597 51.9772 92.4206 54.4163L54.9163 91.9206C52.4772 94.3597 48.5228 94.3597 46.0837 91.9206L8.57925 54.4163Z" fill="#2563EB"/>
<path d="M38.4653 15.8173L34.6675 19.6152L44.4766 29.4243C44.0797 30.2756 43.8581 31.225 43.8581 32.2263C43.8581 35.0688 45.6441 37.4941 48.155 38.4413V62.4369C45.6441 63.3841 43.8581 65.8094 43.8581 68.6519C43.8581 72.3194 46.8312 75.2925 50.4987 75.2925C54.1662 75.2925 57.1394 72.3194 57.1394 68.6519C57.1394 66.075 55.6716 63.8406 53.5262 62.74V38.4741L62.9028 47.8506C62.5253 48.6847 62.3153 49.6106 62.3153 50.5856C62.3153 54.2531 65.2884 57.2263 68.9559 57.2263C72.6234 57.2263 75.5966 54.2531 75.5966 50.5856C75.5966 46.9181 72.6234 43.945 68.9559 43.945C68.2431 43.945 67.5569 44.0572 66.9131 44.265L56.8428 34.1947C57.0356 33.5728 57.1394 32.9116 57.1394 32.2263C57.1394 28.5587 54.1662 25.5856 50.4987 25.5856C49.8134 25.5856 49.1525 25.6894 48.5303 25.8822L38.4653 15.8173Z" fill="#18181B"/>
</svg>
