<svg width="100" height="100" viewBox="0 0 100 100" fill="none" xmlns="http://www.w3.org/2000/svg">
<g clip-path="url(#clip0_13_171)">
<path d="M63.2812 72.2656C65.2344 75.5859 67.9688 77.9297 72.4609 77.9297C76.3672 77.9297 78.9062 75.9766 78.9062 73.2422C78.9062 70.1172 76.3672 68.9453 72.0703 66.9922L69.7266 66.0156C62.8906 63.0859 58.3984 59.5703 58.3984 51.9531C58.3984 44.9219 63.6719 39.4531 72.0703 39.4531C78.125 39.4531 82.4219 41.6016 85.3516 47.0703L78.125 51.7578C76.5625 48.8281 74.8047 47.6562 72.0703 47.6562C69.3359 47.6562 67.5781 49.4141 67.5781 51.7578C67.5781 54.4922 69.3359 55.6641 73.4375 57.4219L75.7812 58.3984C83.7891 61.9141 88.2812 65.2344 88.2812 73.2422C88.2812 81.6406 81.6406 86.3281 72.6562 86.3281C63.8672 86.3281 58.2031 82.2266 55.4688 76.7578L63.2812 72.2656ZM30.0781 73.0469C31.6406 75.5859 32.8125 77.9297 36.1328 77.9297C39.2578 77.9297 41.2109 76.7578 41.2109 72.0703V39.6484H50.5859V71.6797C50.5859 81.4453 44.9219 85.7422 36.5234 85.7422C28.9062 85.7422 24.6094 81.8359 22.4609 77.1484L30.0781 73.0469Z" fill="#2563EB"/>
</g>
<defs>
<clipPath id="clip0_13_171">
<rect width="100" height="100" fill="white"/>
</clipPath>
</defs>
</svg>
