<svg width="100" height="100" viewBox="0 0 100 100" fill="none" xmlns="http://www.w3.org/2000/svg">
<path d="M84.6531 49.3312C84.6531 47.1714 83.7951 45.1 82.2679 43.5727C80.7406 42.0455 78.6692 41.1875 76.5094 41.1875C76.2187 41.1875 75.9344 41.2031 75.6531 41.2312L86.8406 8.2406H39.3031L50.4719 41.2031C50.3094 41.2031 50.1438 41.1875 49.9781 41.1875C48.0358 41.1893 46.1581 41.885 44.6835 43.1491C43.2089 44.4132 42.2344 46.1626 41.9358 48.0818C41.6372 50.001 42.034 51.9637 43.0548 53.6161C44.0756 55.2685 45.6532 56.5018 47.5031 57.0937C45.7711 60.0766 43.6141 62.7915 41.1 65.1531C37.8282 68.2804 33.9418 70.6929 29.6875 72.2375C27.3037 71.1069 25.4394 69.1116 24.473 66.6566C23.5067 64.2016 23.5108 61.4709 24.4844 59.0187C24.725 58.4562 24.9688 57.8875 25.2031 57.3187C27.0198 56.8912 28.6347 55.8532 29.778 54.378C30.9213 52.9029 31.5236 51.0801 31.4844 49.2142C31.4452 47.3483 30.7668 45.5524 29.5626 44.1266C28.3583 42.7008 26.7012 41.7315 24.8682 41.3807C23.0352 41.0299 21.1373 41.3188 19.4917 42.1992C17.8461 43.0796 16.5525 44.498 15.8271 46.2176C15.1017 47.9371 14.9884 49.8536 15.5062 51.6466C16.024 53.4396 17.1414 55.0006 18.6719 56.0687C16.0704 60.7823 14.0864 65.8111 12.7688 71.0312C11.6625 77.7031 12.7688 84.7812 18.5344 88.7843C31.9719 98.1 46.5625 83.0094 61.9438 79.2187C67.5188 77.8437 73.6375 78.0656 78.5469 75.2187C80.3215 74.2097 81.8518 72.8218 83.0288 71.1539C84.2058 69.4859 85.0005 67.5789 85.3562 65.5687C85.6825 63.6542 85.6207 61.6937 85.1746 59.8036C84.7285 57.9134 83.9072 56.1322 82.7594 54.5656C83.9845 53.1015 84.6549 51.2528 84.6531 49.3437V49.3312ZM58.125 49.375V49.3469C58.1258 47.9457 57.7649 46.568 57.0773 45.3472C56.3897 44.1264 55.3987 43.1037 54.2 42.3781L63.0875 24.375L71.9937 42.5437C70.8764 43.2862 69.9603 44.2938 69.3273 45.4765C68.6942 46.6592 68.3638 47.9803 68.3656 49.3218C68.3656 49.3812 68.3656 49.4406 68.3656 49.5L58.125 49.375Z" fill="#2563EB"/>
</svg>
