<svg width="101" height="100" viewBox="0 0 101 100" fill="none" xmlns="http://www.w3.org/2000/svg">
<path d="M71.3041 41.9409C75.2322 41.9409 78.8288 40.6309 81.6094 38.4581C78.7225 42.2619 73.9397 44.7487 68.5278 44.7487C59.7116 44.7487 52.5647 38.1491 52.5647 30.008C52.5647 25.4941 54.7619 21.454 58.2225 18.75C56.4066 21.1427 55.341 24.0566 55.341 27.2002C55.341 35.3412 62.4878 41.9409 71.3041 41.9409Z" fill="#2563EB"/>
<path d="M81.4575 52.0581C77.2225 55.38 71.74 57.3838 65.7515 57.3838C52.3356 57.3838 41.4597 47.3272 41.4597 34.9216C41.4597 30.1101 43.0959 25.6519 45.8815 21.9967C40.629 26.117 37.2953 32.265 37.2953 39.1331C37.2953 51.5388 48.1712 61.5956 61.5872 61.5956C69.8 61.5956 77.0606 57.8272 81.4575 52.0581Z" fill="#2563EB"/>
<path d="M81.75 64.9066C75.7153 70.6653 67.3553 74.2306 58.1172 74.2306C39.7178 74.2306 24.8024 60.0885 24.8024 42.6431C24.8024 37.115 26.3001 31.9188 28.9317 27.399C22.9476 33.1094 19.25 40.9766 19.25 49.6625C19.25 67.1078 34.1653 81.25 52.5647 81.25C65.1334 81.25 76.0769 74.6503 81.75 64.9066Z" fill="#2563EB"/>
</svg>
