<svg width="100" height="100" viewBox="0 0 100 100" fill="none" xmlns="http://www.w3.org/2000/svg">
<g clip-path="url(#clip0_13_196)">
<path d="M46.7288 0.0780939C46.514 0.0976232 45.8305 0.165976 45.2153 0.214799C31.0273 1.49397 17.7375 9.14947 9.32038 20.9159C4.63334 27.4582 1.63559 34.8794 0.502886 42.7399C0.102534 45.4838 0.0537109 46.2943 0.0537109 50.0146C0.0537109 53.735 0.102534 54.5454 0.502886 57.2893C3.21746 76.0472 16.5658 91.8074 34.6695 97.6467C37.9113 98.6915 41.329 99.4043 45.2153 99.834C46.7288 100 53.2712 100 54.7847 99.834C61.493 99.0919 67.1761 97.4319 72.781 94.5708C73.6403 94.1314 73.8063 94.0142 73.6891 93.9166C73.611 93.858 69.9492 88.9464 65.5551 83.0095L57.5676 72.2195L47.5588 57.4065C42.0516 49.2627 37.5208 42.6032 37.4817 42.6032C37.4426 42.5935 37.4036 49.1749 37.3841 57.2112C37.3548 71.2821 37.345 71.8484 37.1692 72.1804C36.9153 72.6589 36.7201 72.8542 36.3099 73.069C35.9975 73.2252 35.7241 73.2545 34.2496 73.2545H32.5603L32.1111 72.9714C31.8182 72.7858 31.6034 72.5417 31.4569 72.2585L31.2518 71.8191L31.2714 52.241L31.3007 32.653L31.6034 32.2722C31.7596 32.0672 32.0916 31.8035 32.326 31.6766C32.7263 31.4813 32.8825 31.4617 34.5718 31.4617C36.5638 31.4617 36.8958 31.5399 37.4133 32.1062C37.5598 32.2625 42.9792 40.4257 49.463 50.2587C55.9467 60.0918 64.813 73.5182 69.1681 80.1093L77.0774 92.0906L77.4778 91.827C81.0224 89.5225 84.772 86.2416 87.7405 82.8239C94.0582 75.5688 98.1301 66.722 99.4971 57.2893C99.8975 54.5454 99.9463 53.735 99.9463 50.0146C99.9463 46.2943 99.8975 45.4838 99.4971 42.7399C96.7826 23.982 83.4342 8.22183 65.3305 2.38256C62.1375 1.3475 58.7394 0.63468 54.9312 0.205035C53.9938 0.107388 47.5393 -2.34693e-05 46.7288 0.0780939ZM67.1761 30.29C67.6448 30.5243 68.0256 30.9735 68.1623 31.4422C68.2404 31.6961 68.2599 37.1253 68.2404 49.3604L68.2111 66.9173L65.1157 62.1716L62.0106 57.426V44.6636C62.0106 36.4124 62.0496 31.7742 62.1082 31.5496C62.2644 31.0028 62.6062 30.5732 63.0749 30.3193C63.4753 30.1142 63.6217 30.0947 65.1548 30.0947C66.6 30.0947 66.8538 30.1142 67.1761 30.29Z" fill="#2563EB"/>
<path d="M76.5892 92.3054C76.2474 92.5202 76.14 92.6667 76.4427 92.5007C76.6575 92.3738 77.009 92.1101 76.9505 92.1003C76.9212 92.1003 76.7552 92.198 76.5892 92.3054ZM75.9154 92.7448C75.7396 92.8815 75.7396 92.8913 75.9545 92.7839C76.0716 92.7253 76.1693 92.6569 76.1693 92.6374C76.1693 92.5593 76.1205 92.5788 75.9154 92.7448ZM75.4272 93.0377C75.2514 93.1745 75.2514 93.1842 75.4662 93.0768C75.5834 93.0182 75.6811 92.9499 75.6811 92.9303C75.6811 92.8522 75.6322 92.8717 75.4272 93.0377ZM74.9389 93.3307C74.7632 93.4674 74.7632 93.4772 74.978 93.3697C75.0952 93.3112 75.1928 93.2428 75.1928 93.2233C75.1928 93.1452 75.144 93.1647 74.9389 93.3307ZM74.1968 93.7213C73.8258 93.9166 73.8453 93.9947 74.2164 93.8092C74.3824 93.7213 74.5093 93.6334 74.5093 93.6139C74.5093 93.5455 74.4995 93.5553 74.1968 93.7213Z" fill="#2563EB"/>
</g>
<defs>
<clipPath id="clip0_13_196">
<rect width="100" height="100" fill="white"/>
</clipPath>
</defs>
</svg>
