<svg width="100" height="100" viewBox="0 0 100 100" fill="none" xmlns="http://www.w3.org/2000/svg">
<g clip-path="url(#clip0_13_199)">
<path d="M45.4994 1.26951C48.2184 -0.14361 51.7598 -0.149993 54.4764 1.26951C68.1433 8.28157 81.8145 15.2826 95.4791 22.2989C98.0493 23.6135 99.7684 26.2106 99.7422 28.8997V71.0869C99.7614 73.8872 97.8723 76.5465 95.1608 77.8312C81.5388 84.8046 67.9238 91.7865 54.3041 98.7599C51.529 100.201 47.9165 100.09 45.228 98.5309C41.1441 96.3812 37.0532 94.2422 32.969 92.0947C32.1344 91.6429 31.1936 91.2833 30.6042 90.5486C31.1252 89.911 32.0567 89.8316 32.8135 89.5532C34.5182 89.061 36.0839 88.2709 37.65 87.5043C38.046 87.2582 38.5295 87.3525 38.9091 87.5727C42.4013 89.3908 45.8626 91.2617 49.3665 93.0624C50.114 93.4543 50.8709 92.934 51.5098 92.6106C64.8772 85.7507 78.261 78.9167 91.6261 72.0546C92.1213 71.8383 92.395 71.361 92.3548 70.8684C92.3642 56.9518 92.3571 43.0326 92.3595 29.116C92.4161 28.5571 92.0599 28.0433 91.5034 27.8145C77.9287 20.8731 64.3609 13.9209 50.7885 6.97767C50.5534 6.83088 50.2748 6.75212 49.9894 6.75174C49.7041 6.75136 49.4253 6.82938 49.1896 6.97554C35.6172 13.9209 22.0518 20.8794 8.4794 27.8206C7.92483 28.0497 7.55264 28.555 7.61865 29.116C7.62099 43.0326 7.61865 56.9518 7.61865 70.8706C7.59511 71.1109 7.65324 71.352 7.78521 71.5614C7.91718 71.7708 8.11665 71.9385 8.35677 72.0419C11.9786 73.9067 15.6052 75.7585 19.2294 77.617C21.2711 78.6149 23.778 79.2078 26.0275 78.4433C28.0126 77.7968 29.4041 75.9575 29.3662 74.0436C29.385 60.2082 29.3569 46.3706 29.3803 32.5372C29.3307 31.9231 29.9724 31.4156 30.63 31.4734C32.3703 31.4628 34.1129 31.4521 35.8531 31.4777C36.5795 31.4628 37.0794 32.1241 36.9896 32.7429C36.9825 46.666 37.0083 60.5894 36.9778 74.5124C36.9825 78.2231 35.3036 82.2606 31.5236 84.0762C26.8668 86.2667 21.111 85.8021 16.5105 83.7018C12.5277 81.8968 8.727 79.7667 4.81496 77.833C2.09642 76.5553 0.21675 73.8855 0.235886 71.0872V28.8997C0.207377 26.155 1.99488 23.5106 4.64508 22.2153C18.2648 15.2362 31.8821 8.25178 45.4994 1.26951Z" fill="#2563EB"/>
<path d="M57.3812 30.4929C63.3213 30.1457 69.6805 30.2872 75.0258 32.9443C79.1643 34.9804 81.4587 39.2539 81.5318 43.4287C81.4162 43.9918 80.7679 44.3024 80.1758 44.2638C78.4524 44.2617 76.7285 44.2851 75.0051 44.2531C74.274 44.2787 73.8491 43.6666 73.7573 43.0797C73.2621 41.0822 72.0624 39.1039 69.9917 38.1404C66.8131 36.6953 63.1276 36.768 59.6616 36.7982C57.1313 36.9202 54.4104 37.1191 52.2667 38.4702C50.621 39.4936 50.1211 41.5595 50.7084 43.2234C51.2622 44.418 52.781 44.8035 54.0237 45.1588C61.1823 46.8588 68.7682 46.6897 75.7901 48.9269C78.6972 49.839 81.5412 51.612 82.5362 54.3758C83.8379 58.0801 83.2673 62.5078 80.3648 65.4815C78.0111 67.9287 74.5829 69.2606 71.1637 69.984C66.6151 70.9049 61.8947 70.9283 57.2754 70.5195C52.9318 70.0698 48.4117 69.0336 45.0585 66.3464C42.1912 64.0858 40.7907 60.5634 40.9297 57.1638C40.9629 56.5897 41.5925 56.1893 42.1982 56.2365C43.9338 56.2237 45.6693 56.2195 47.4049 56.2386C48.0981 56.1936 48.612 56.7375 48.6476 57.3308C48.9678 59.234 49.7555 61.2315 51.5832 62.3599C55.1106 64.4262 59.5366 64.2847 63.5755 64.3425C66.9217 64.2078 70.6779 64.167 73.4086 62.1588C74.8493 61.0134 75.2761 59.0971 74.8867 57.4485C74.465 56.0567 72.8614 55.4081 71.4844 54.984C64.4175 52.9542 56.747 53.6907 49.7485 51.3953C46.9073 50.4836 44.1599 48.7599 43.0683 46.1095C41.5452 42.3585 42.2431 37.7187 45.4498 34.8453C48.5765 31.9872 53.0899 30.8868 57.3812 30.4929Z" fill="#2563EB"/>
</g>
<defs>
<clipPath id="clip0_13_199">
<rect width="100" height="100" fill="white"/>
</clipPath>
</defs>
</svg>
