<svg width="100" height="100" viewBox="0 0 100 100" fill="none" xmlns="http://www.w3.org/2000/svg">
<path d="M58.3716 49.9247C58.3716 45.4422 54.6237 41.8078 50 41.8078C45.3769 41.8078 41.6284 45.4422 41.6284 49.9247C41.6284 54.4078 45.3769 58.0419 50 58.0419C54.6237 58.0419 58.3716 54.4078 58.3716 49.9247Z" fill="#2563EB"/>
<path fill-rule="evenodd" clip-rule="evenodd" d="M77.1888 34.8553C78.9566 27.8899 81.1787 14.9734 73.345 10.5942C65.5478 6.23422 55.4013 14.5888 50.0434 19.6037C44.7013 14.6388 34.2697 6.3199 26.4426 10.7129C18.6485 15.0876 21.052 27.79 22.8591 34.7991C15.5885 36.8012 3.125 41.1137 3.125 49.9247C3.125 58.7106 15.5755 63.4025 22.8031 65.4028C20.9893 72.4506 18.7061 84.9716 26.5102 89.3366C34.3666 93.7287 44.7656 85.6078 50.1731 80.5381C55.5653 85.5825 65.6144 93.7566 73.4131 89.3794C81.2363 84.9884 79.1988 72.245 77.3916 65.1953C84.3978 63.1906 96.875 58.6009 96.875 49.9247C96.875 41.1984 84.3447 36.8509 77.1888 34.8553ZM76.3006 61.4594C75.1141 57.8175 73.5125 53.9447 71.5534 49.9441C73.4234 46.0378 74.9628 42.215 76.1162 38.5966C81.3622 40.0712 92.8703 43.4416 92.8703 49.9247C92.8703 56.4687 81.8269 59.8709 76.3006 61.4594ZM71.4062 86.0187C65.5875 89.2844 56.9441 81.4675 52.9619 77.7528C55.6037 74.9512 58.2437 71.6944 60.8203 68.0778C65.3528 67.6881 69.6344 67.0506 73.5175 66.1803C74.7894 71.1669 77.2506 82.7384 71.4062 86.0187ZM28.5113 85.9722C22.692 82.7188 25.3518 71.5456 26.6862 66.3541C30.5261 67.1778 34.7769 67.7703 39.32 68.1275C41.9134 71.6662 44.63 74.9191 47.3675 77.7678C43.9853 80.94 34.3578 89.2406 28.5113 85.9722ZM7.12966 49.9247C7.12966 43.3562 18.569 40.0103 23.9345 38.5394C25.1078 42.2391 26.6467 46.1075 28.5038 50.0194C26.6227 53.9894 25.0618 57.9191 23.8777 61.6625C18.7615 60.2425 7.12966 56.4972 7.12966 49.9247ZM28.4491 14.0736C34.2922 10.7942 43.3584 18.7807 47.2372 22.3754C44.5137 25.2111 41.8222 28.4394 39.2509 31.9578C34.8419 32.3541 30.6211 32.9903 26.7409 33.8428C25.2852 28.1897 22.6122 17.3493 28.4491 14.0736ZM63.6853 36.1784C66.6766 36.5444 69.5425 37.0312 72.2334 37.6269C71.4256 40.1375 70.4187 42.7628 69.2328 45.4541C67.5137 42.2916 65.6684 39.1925 63.6853 36.1784ZM50.0447 25.1503C51.8919 27.0905 53.7419 29.2572 55.5619 31.6078C51.8703 31.4384 48.1728 31.4378 44.4813 31.6053C46.3028 29.2765 48.1687 27.1131 50.0447 25.1503ZM30.8016 45.4512C29.6353 42.7694 28.6374 40.1325 27.8226 37.5859C30.4974 37.0056 33.35 36.5312 36.3219 36.1712C34.3331 39.1787 32.4909 42.2766 30.8016 45.4512ZM36.4072 63.9553C33.3372 63.6231 30.4414 63.1728 27.7674 62.6084C28.5951 60.0172 29.6149 57.3234 30.8061 54.5837C32.5187 57.7916 34.3891 60.9194 36.4072 63.9553ZM50.1556 74.9734C48.2575 72.9875 46.3641 70.7909 44.515 68.4284C48.2275 68.5697 51.9472 68.57 55.6594 68.4094C53.8338 70.815 51.9903 73.0147 50.1556 74.9734ZM69.2709 54.4444C70.5241 57.2137 71.5803 59.8928 72.4194 62.4403C69.7009 63.0419 66.7663 63.5262 63.6741 63.8859C65.6719 60.8147 67.5466 57.6675 69.2709 54.4444ZM58.5853 64.3566C52.9066 64.75 47.1925 64.7456 41.5119 64.3887C38.2841 59.8172 35.4106 55.0094 32.9303 50.0181C35.3988 45.0372 38.2513 40.2387 41.4637 35.6744C47.1484 35.2578 52.8681 35.2566 58.5528 35.6769C61.7378 40.2409 64.5859 45.0269 67.1116 49.9628C64.6159 54.9412 61.7484 59.7494 58.5853 64.3566ZM71.3447 13.9581C77.1894 17.2267 74.5878 28.8352 73.3109 33.8831C69.4216 33.0128 65.1978 32.3653 60.7759 31.9628C58.1997 28.4064 55.5306 25.1724 52.8512 22.3734C56.7797 18.7013 65.5566 10.7215 71.3447 13.9581Z" fill="#2563EB"/>
</svg>
