<svg width="101" height="100" viewBox="0 0 101 100" fill="none" xmlns="http://www.w3.org/2000/svg">
<path d="M68.5837 67.3625C72.0434 67.0103 74.6681 64.0781 74.5488 60.5591C74.4297 57.0406 71.4469 54.2256 67.8678 54.2256H67.6294C63.9306 54.3428 61.0678 57.3925 61.1872 61.0284C61.3066 62.7878 62.0222 64.3125 63.0959 65.3681C59.0397 73.2269 52.8359 78.9741 43.5306 83.7831C37.2075 87.0672 30.6462 88.2403 24.0848 87.4194C18.7162 86.7156 14.5407 84.37 11.9157 80.4987C8.09825 74.7515 7.74047 68.535 10.9617 62.3187C13.2285 57.8615 16.8071 54.5772 19.074 52.935C18.5968 51.4103 17.8808 48.83 17.5231 46.9534C0.22436 59.2691 2.01403 75.9247 7.26331 83.7831C11.2001 89.6478 19.1933 93.284 28.0216 93.284C30.4075 93.284 32.7934 93.049 35.1797 92.4631C50.4503 89.5306 62.0225 80.6162 68.5837 67.3625ZM89.5809 52.8181C80.5141 42.3791 67.1522 36.6319 51.8816 36.6319H49.9731C48.8994 34.5206 46.6325 33.1128 44.1272 33.1128H43.8884C40.1903 33.2303 37.3275 36.2797 37.4466 39.9159C37.5659 43.4347 40.5481 46.2497 44.1272 46.2497H44.3656C46.9903 46.1325 49.2572 44.4903 50.2116 42.2616H52.3588C61.4259 42.2616 70.0153 44.8419 77.7703 49.8856C83.735 53.7562 88.03 58.8 90.4159 64.8991C92.4441 69.8253 92.3247 74.6344 90.1772 78.7397C86.8369 84.9559 81.23 88.3575 73.8331 88.3575C69.0609 88.3575 64.5278 86.95 62.1416 85.8944C60.8294 87.0672 58.4431 88.9437 56.7728 90.1172C61.9031 92.4628 67.1522 93.7531 72.1628 93.7531C83.6156 93.7531 92.0863 87.5362 95.3075 81.32C98.7669 74.5169 98.5281 62.7878 89.5809 52.8181ZM28.9759 69.3559C29.0953 72.8747 32.0778 75.6894 35.6569 75.6894H35.8956C39.5937 75.5725 42.4569 72.5228 42.3375 68.8869C42.2184 65.3678 39.2356 62.5531 35.6569 62.5531H35.4184C35.1797 62.5531 34.8216 62.5531 34.5834 62.67C29.6919 54.6944 27.6638 46.015 28.3797 36.6316C28.8566 29.5939 31.2428 23.4946 35.4184 18.4509C38.8778 14.1111 45.5587 11.9999 50.0925 11.8829C62.7381 11.6481 68.1062 27.1306 68.4644 33.3472C70.0153 33.6991 72.64 34.5203 74.4297 35.1069C72.9978 16.1057 61.0678 6.25305 49.6153 6.25305C38.8778 6.25305 28.9759 13.8771 25.0388 25.1371C19.5512 40.1503 23.1301 54.5772 29.8109 65.9547C29.2147 66.7756 28.8566 68.0656 28.9759 69.3559Z" fill="#2563EB"/>
</svg>
