<svg width="101" height="100" viewBox="0 0 101 100" fill="none" xmlns="http://www.w3.org/2000/svg">
<path d="M82.0938 54.9125C79.3459 54.9161 76.6349 55.5444 74.1656 56.75C73.3925 55.467 72.7955 54.0859 72.3906 52.6437C72.158 51.5133 72.1042 50.3534 72.2313 49.2062C72.4984 47.944 72.8449 46.6998 73.2688 45.4812C73.2531 45.3219 73.0781 44.5687 71.3188 44.5437C69.5594 44.5187 68.0438 44.8781 67.8813 45.3437C67.5757 46.1942 67.3303 47.0651 67.1469 47.95C65.6908 51.5422 63.8984 54.9888 61.7938 58.2437C60.6146 56.3106 60.1296 54.0333 60.4188 51.7875C60.6859 50.5252 61.0324 49.2811 61.4563 48.0625C61.4406 47.9031 61.2656 47.15 59.5063 47.125C57.7469 47.1 56.2313 47.4594 56.0688 47.925C55.9063 48.3906 55.7 49.4875 55.3344 50.5312C54.9688 51.575 50.7 61.1125 49.5813 63.5719C49.0063 64.8219 48.5094 65.8406 48.1594 66.5281C48.1428 66.5728 48.1219 66.6157 48.0969 66.6562C47.7844 67.2469 47.6188 67.5687 47.6188 67.5687V67.5844C47.3781 68.0156 47.1219 68.4156 46.9938 68.4156C46.7703 67.5228 46.781 66.5874 47.025 65.7C47.65 62.3906 49.1813 57.2469 49.1656 57.0687C49.1656 56.9719 49.4531 56.0781 48.175 55.6156C47.8786 55.4745 47.5457 55.4289 47.2222 55.4848C46.8987 55.5408 46.6006 55.6957 46.3688 55.9281C46.2563 55.9281 46.1781 56.2 46.1781 56.2C46.1781 56.2 47.5688 50.4156 43.525 50.4156C41.9503 50.7324 40.4548 51.3608 39.1266 52.264C37.7983 53.1673 36.6641 54.327 35.7906 55.675C34.7031 56.2656 32.3875 57.5281 29.9094 58.8875C28.9719 59.4156 27.9906 59.9437 27.0813 60.45C27.0188 60.3875 26.9531 60.3062 26.8906 60.2437C21.9688 55 12.9219 51.3 13.3125 44.2844C13.4563 41.7281 14.3344 35.0156 30.6844 26.8625C44.1406 20.2312 54.85 22.0687 56.7031 26.1437C59.3563 31.9625 50.9656 42.7656 37.0625 44.3312C35.5244 44.6433 33.9358 44.6056 32.4143 44.221C30.8927 43.8365 29.477 43.1148 28.2719 42.1094C27.5375 41.3094 27.425 41.2625 27.1531 41.4219C26.7063 41.6625 26.9938 42.3812 27.1531 42.7969C27.6835 43.7567 28.4009 44.6005 29.2629 45.2784C30.1249 45.9563 31.1141 46.4546 32.1719 46.7437C37.6414 47.9257 43.3439 47.3606 48.475 45.1281C56.9125 41.8687 63.475 32.8062 61.55 25.2156C59.6156 17.5125 46.8313 14.9719 34.7313 19.2781C27.1524 21.8283 20.1495 25.8453 14.1219 31.1C7.45626 37.3344 6.40314 42.75 6.83439 45.0219C8.39689 53.0781 19.4938 58.3187 23.9344 62.2094C23.7094 62.3375 23.5031 62.45 23.3281 62.5437C21.1063 63.6469 12.6375 68.075 10.5156 72.7562C8.11876 78.0687 10.9 81.8656 12.7375 82.3781C15.5063 83.0409 18.4129 82.8226 21.0516 81.7536C23.6903 80.6847 25.9294 78.8185 27.4563 76.4156C28.7565 74.4225 29.5557 72.1447 29.7858 69.7762C30.016 67.4077 29.6703 65.0186 28.7781 62.8125C28.7631 62.7768 28.7419 62.744 28.7156 62.7156L30.4563 61.6937C31.5906 61.0219 32.7094 60.4 33.6688 59.8875C33.0182 61.7639 32.6363 63.7229 32.5344 65.7062C32.3135 68.7461 33.2438 71.758 35.1406 74.1437C35.4293 74.3922 35.7643 74.5809 36.1264 74.6989C36.4885 74.8169 36.8704 74.8619 37.25 74.8312C39.125 74.8312 39.9844 73.2687 40.925 71.4125C42.075 69.1437 43.1125 66.5062 43.1125 66.5062C43.1125 66.5062 41.8188 73.6344 45.3344 73.6344C46.6125 73.6344 47.9063 71.9719 48.4844 71.1344V71.15C48.4844 71.15 48.5156 71.1031 48.5813 70.9906L48.7875 70.6562V70.625C49.3 69.7312 50.45 67.7 52.1594 64.3281C54.3656 59.9812 56.4906 54.5469 56.4906 54.5469C56.6956 55.7412 56.9785 56.9208 57.3375 58.0781C57.8522 59.481 58.4609 60.8477 59.1594 62.1687C58.6469 62.8875 58.3281 63.2875 58.3281 63.2875L58.3438 63.3031C57.9281 63.8469 57.4813 64.4375 56.9844 65.0125C55.5061 66.6378 54.1345 68.357 52.8781 70.1594C52.6915 70.4621 52.6273 70.8246 52.6987 71.173C52.7702 71.5215 52.9718 71.8295 53.2625 72.0344C53.9204 72.3767 54.6702 72.5004 55.4031 72.3875C56.5077 72.3251 57.5937 72.0769 58.6156 71.6531C59.6032 71.3056 60.5348 70.8161 61.3813 70.2C62.2539 69.5955 62.9563 68.7766 63.4209 67.8221C63.8855 66.8677 64.0968 65.8097 64.0344 64.75C63.9361 63.4151 63.5951 62.1093 63.0281 60.8969C63.1875 60.6719 63.3406 60.45 63.4906 60.225C65.2673 57.5731 66.8686 54.8078 68.2844 51.9469C68.4893 53.1412 68.7722 54.3208 69.1313 55.4781C69.5558 56.6905 70.0783 57.8662 70.6938 58.9937C68.6498 60.5663 67.0399 62.6333 66.0156 65C65.0094 67.9094 65.7906 69.2187 67.2656 69.5219C68.0727 69.5775 68.8798 69.4122 69.6 69.0437C70.659 68.6957 71.6566 68.1832 72.5563 67.525C73.5049 66.9651 74.2994 66.1782 74.8684 65.2351C75.4373 64.2919 75.7628 63.2221 75.8156 62.1219C75.7447 61.0236 75.4967 59.9441 75.0813 58.925C77.7785 57.8713 80.7029 57.5353 83.5688 57.95C91.175 58.8437 92.6781 63.5906 92.3906 65.5906C92.2558 66.2996 91.9707 66.9716 91.5546 67.5612C91.1385 68.1509 90.601 68.6447 89.9781 69.0094C89.45 69.3437 89.275 69.4562 89.3219 69.6969C89.3844 70.05 89.6344 70.0312 90.0875 69.9687C91.2339 69.6124 92.2453 68.917 92.9885 67.9742C93.7316 67.0313 94.1714 65.8854 94.25 64.6875C94.4906 60 90.0156 54.8594 82.1031 54.9062L82.0938 54.9125ZM23.4063 74.6875C20.8813 77.4375 17.3656 78.475 15.8469 77.5969C14.2156 76.6594 14.8563 72.5969 17.9563 69.6844C19.7952 68.029 21.7827 66.5467 23.8938 65.2562C24.2625 65.0312 24.8063 64.7125 25.4563 64.3187L25.6313 64.2219L26.0156 63.9812C26.5695 65.8368 26.6197 67.8064 26.1611 69.6878C25.7026 71.5692 24.7518 73.2948 23.4063 74.6875ZM41.7844 62.1875C40.9063 64.3281 39.0688 69.8125 37.95 69.5062C36.9906 69.25 36.3875 65.0937 37.7594 60.9875C38.452 59.0108 39.461 57.1596 40.7469 55.5062C42.1219 53.9719 43.6406 53.4594 44.0063 54.0844C43.6727 56.8809 42.9238 59.612 41.7844 62.1875ZM56.95 69.4437C56.5813 69.6344 56.2313 69.7562 56.0719 69.6687C55.9594 69.6062 56.2313 69.3562 56.2313 69.3562C56.2313 69.3562 58.1344 67.3094 58.8844 66.3844C59.3156 65.8406 59.8219 65.2031 60.3719 64.4812V64.6875C60.3719 67.1312 58.0063 68.7781 56.9531 69.45L56.95 69.4437ZM68.65 66.775C68.3781 66.5844 68.425 65.9437 69.3375 63.9469C69.972 62.6644 70.8584 61.5229 71.9438 60.5906C72.1101 61.0636 72.1967 61.5611 72.2 62.0625C72.2123 63.1298 71.8711 64.1712 71.2295 65.0242C70.5879 65.8772 69.682 66.4939 68.6531 66.7781L68.65 66.775Z" fill="#2563EB"/>
</svg>
