<svg width="100" height="100" viewBox="0 0 100 100" fill="none" xmlns="http://www.w3.org/2000/svg">
<g clip-path="url(#clip0_13_185)">
<path fill-rule="evenodd" clip-rule="evenodd" d="M13.9258 72.1434C12.5333 72.1434 11.6163 72.8906 11.6163 73.8868C11.6163 74.7698 12.1597 75.3585 13.3937 75.6981C14.5144 76.0151 14.7522 76.1736 14.7522 76.6717C14.7522 77.1246 14.3333 77.3963 13.688 77.3963C13.0767 77.3963 12.522 77.1585 12.0578 76.8076L11.3333 77.6227C11.888 78.1208 12.6918 78.4717 13.722 78.4717C15.0918 78.4717 16.2465 77.8151 16.2465 76.5698C16.2465 75.5057 15.5559 75.0076 14.3333 74.6793C13.3144 74.3963 13.0767 74.2151 13.0767 73.8189C13.0767 73.4566 13.405 73.2189 13.9824 73.2189C14.5144 73.2189 14.9899 73.3887 15.488 73.7057L16.0541 72.8566C15.488 72.4151 14.7861 72.1434 13.9258 72.1434ZM20.3446 77.0906L20.8541 78.0189C20.4239 78.3246 19.8805 78.4717 19.3484 78.4717C18.171 78.4604 17.5484 77.7925 17.5484 76.5132V73.3547H16.6088V72.3132H17.5484V70.9887L18.9975 70.8189V72.3132H20.3899L20.2427 73.3547H18.9975V76.4793C18.9975 77.068 19.1899 77.3057 19.6314 77.3057C19.8578 77.3057 20.0842 77.2378 20.3446 77.0906ZM26.5144 72.3132L24.5673 78.3246C24.1144 79.7283 23.2314 80.634 21.4541 80.7698L21.3069 79.717C22.4956 79.5359 22.8805 79.151 23.2201 78.3019H22.722L20.8201 72.3132H22.3597L23.6616 77.3396L25.0201 72.3132H26.5144ZM28.8126 78.4717C29.144 78.4717 29.4718 78.4023 29.7748 78.268L29.4692 77.2491C29.3673 77.283 29.2654 77.3057 29.1295 77.3057C28.8918 77.3057 28.7899 77.1698 28.7899 76.8868V69.7547L27.3409 69.9132V76.9321C27.3409 77.917 27.8956 78.4717 28.8126 78.4717ZM35.6503 75.1661C35.6503 75.3585 35.6276 75.5963 35.6163 75.7547H31.8578C31.9597 76.9774 32.5371 77.3736 33.3295 77.3736C33.8616 77.3736 34.3031 77.2038 34.8239 76.8415L35.4239 77.668C34.8352 78.1434 34.1107 78.4717 33.205 78.4717C31.3484 78.4717 30.3522 77.2378 30.3522 75.3472C30.3522 73.5246 31.3144 72.1434 33.0126 72.1434C34.688 72.1434 35.6503 73.2755 35.6503 75.1661ZM34.2126 74.8151V74.7472C34.2126 73.7623 33.8616 73.1736 33.0465 73.1736C32.3673 73.1736 31.9371 73.6264 31.8578 74.8151H34.2126ZM40.5409 69.7547L41.9899 69.9132V78.3019H40.7107L40.6088 77.5434C40.2465 78.0868 39.6692 78.4717 38.8993 78.4717C37.405 78.4717 36.6239 77.2151 36.6239 75.3132C36.6239 73.468 37.5522 72.1434 39.0352 72.1434C39.6692 72.1434 40.1673 72.4151 40.5409 72.7887V69.7547ZM39.3069 77.3736C39.839 77.3736 40.2012 77.1132 40.5409 76.6038V73.8642C40.2239 73.4793 39.8842 73.2302 39.3975 73.2302C38.6503 73.2302 38.1522 73.8642 38.1522 75.3019C38.1522 76.8415 38.5937 77.3736 39.3069 77.3736ZM13.9748 83.4642C12.2541 83.4642 11.1786 84.7661 11.1786 86.6793C11.1786 88.5925 12.2541 89.7925 13.9861 89.7925C14.7559 89.7925 15.3786 89.5434 15.922 89.1019L15.2767 88.1849C14.8352 88.468 14.5182 88.6151 14.0654 88.6151C13.2503 88.6151 12.7182 88.1057 12.7182 86.6566C12.7182 85.2189 13.2276 84.6076 14.0654 84.6076C14.5182 84.6076 14.8805 84.7434 15.2767 85.0378L15.922 84.1661C15.3559 83.6793 14.7559 83.4642 13.9748 83.4642ZM19.4201 83.4642C21.1861 83.4642 22.2276 84.6642 22.2276 86.6227C22.2276 88.5132 21.1748 89.7925 19.4088 89.7925C17.6427 89.7925 16.5899 88.5925 16.5899 86.6227C16.5899 84.7434 17.6427 83.4642 19.4201 83.4642ZM19.4201 84.5623C18.571 84.5623 18.1182 85.2076 18.1182 86.6227C18.1182 88.0604 18.5597 88.6944 19.4088 88.6944C20.2578 88.6944 20.6993 88.0491 20.6993 86.6227C20.6993 85.1963 20.2578 84.5623 19.4201 84.5623ZM29.9371 83.4642C29.1446 83.4642 28.5899 83.8491 28.1371 84.4717C27.9107 83.8378 27.3899 83.4642 26.688 83.4642C25.9295 83.4642 25.3861 83.8151 24.9559 84.4151L24.8427 83.634H23.5861V89.6227H25.0352V85.4566C25.3635 84.9019 25.6692 84.551 26.1786 84.551C26.5295 84.551 26.8352 84.7661 26.8352 85.5132V89.6227H28.2843V85.4566C28.6126 84.9019 28.9182 84.551 29.4163 84.551C29.7786 84.551 30.0729 84.7661 30.0729 85.5132V89.6227H31.522V85.2868C31.522 84.1547 30.888 83.4642 29.9371 83.4642ZM36.3107 83.4642C37.8729 83.4642 38.5295 84.6981 38.5295 86.6114C38.5295 88.4453 37.6805 89.7925 36.1635 89.7925C35.5522 89.7925 35.0314 89.5774 34.6578 89.1359V91.9321L33.2088 92.0906V83.634H34.4767L34.5559 84.3698C35.0314 83.7472 35.6654 83.4642 36.3107 83.4642ZM35.756 88.683C36.5484 88.683 37.0126 88.0717 37.0126 86.6227C37.0126 85.1057 36.605 84.551 35.8805 84.551C35.371 84.551 34.9409 84.9019 34.6578 85.3661V88.0604C34.9409 88.4793 35.3031 88.683 35.756 88.683ZM42.4012 83.4642C44.1673 83.4642 45.2088 84.6642 45.2088 86.6227C45.2088 88.5132 44.1559 89.7925 42.3899 89.7925C40.6239 89.7925 39.571 88.5925 39.571 86.6227C39.571 84.7434 40.6239 83.4642 42.4012 83.4642ZM42.4012 84.5623C41.5522 84.5623 41.0993 85.2076 41.0993 86.6227C41.0993 88.0604 41.5409 88.6944 42.3899 88.6944C43.239 88.6944 43.6805 88.0491 43.6805 86.6227C43.6805 85.1963 43.239 84.5623 42.4012 84.5623ZM49.7597 83.4642C49.0012 83.4642 48.4012 83.8151 47.9371 84.4151L47.8239 83.634H46.5673V89.6227H48.0163V85.4566C48.3673 84.9019 48.7522 84.551 49.2729 84.551C49.7258 84.551 50.0088 84.7661 50.0088 85.5132V89.6227H51.4578V85.2868C51.4578 84.1434 50.8352 83.4642 49.7597 83.4642ZM58.0578 86.4868C58.0578 86.6793 58.0352 86.917 58.0239 87.0755H54.2654C54.3673 88.2981 54.9446 88.6944 55.7371 88.6944C56.2692 88.6944 56.7107 88.5246 57.2314 88.1623L57.8314 88.9887C57.2427 89.4642 56.5182 89.7925 55.6126 89.7925C53.756 89.7925 52.7597 88.5585 52.7597 86.668C52.7597 84.8453 53.722 83.4642 55.4201 83.4642C57.0956 83.4642 58.0578 84.5963 58.0578 86.4868ZM56.6201 86.1359V86.068C56.6201 85.083 56.2692 84.4944 55.4541 84.4944C54.7748 84.4944 54.3446 84.9472 54.2654 86.1359H56.6201ZM62.5522 83.4642C61.7937 83.4642 61.1937 83.8151 60.7295 84.4151L60.6163 83.634H59.3597V89.6227H60.8088V85.4566C61.1597 84.9019 61.5446 84.551 62.0654 84.551C62.5182 84.551 62.8012 84.7661 62.8012 85.5132V89.6227H64.2503V85.2868C64.2503 84.1434 63.6276 83.4642 62.5522 83.4642ZM68.8578 88.4114C68.5975 88.5585 68.371 88.6264 68.1446 88.6264C67.7031 88.6264 67.5107 88.3887 67.5107 87.8V84.6755H68.756L68.9031 83.634H67.5107V82.1397L66.0616 82.3095V83.634H65.122V84.6755H66.0616V87.834C66.0616 89.1132 66.6843 89.7812 67.8616 89.7925C68.3937 89.7925 68.9371 89.6453 69.3673 89.3396L68.8578 88.4114ZM72.0729 83.4642C70.6805 83.4642 69.7635 84.2113 69.7635 85.2076C69.7635 86.0906 70.3069 86.6793 71.5409 87.0189C72.6616 87.3359 72.8993 87.4944 72.8993 87.9925C72.8993 88.4453 72.4805 88.717 71.8352 88.717C71.2239 88.717 70.6692 88.4793 70.205 88.1283L69.4805 88.9434C70.0352 89.4415 70.839 89.7925 71.8692 89.7925C73.239 89.7925 74.3937 89.1359 74.3937 87.8906C74.3937 86.8264 73.7031 86.3283 72.4805 86C71.4616 85.717 71.2239 85.5359 71.2239 85.1396C71.2239 84.7774 71.5522 84.5396 72.1295 84.5396C72.6616 84.5396 73.1371 84.7095 73.6352 85.0264L74.2012 84.1774C73.6352 83.7359 72.9333 83.4642 72.0729 83.4642ZM25.0943 27.4214L13.7107 34.4969L25.0943 41.6981L23.9308 43.1447L12.0754 35.7233V33.239L24.0566 25.8176M83.5849 32.956V35.4088L71.7295 42.8302L70.566 41.2893L81.9182 34.1824L70.566 27.0441L71.5723 25.5032" fill="#2563EB"/>
<path d="M33.9623 799.868H820.126V13.7044H33.9623V799.868Z"/>
</g>
<defs>
<clipPath id="clip0_13_185">
<rect width="100" height="100" fill="white"/>
</clipPath>
</defs>
</svg>
