<svg width="101" height="100" viewBox="0 0 101 100" fill="none" xmlns="http://www.w3.org/2000/svg">
<g clip-path="url(#clip0_13_157)">
<path d="M50.5 19.9219C37.1667 19.9219 28.8333 26.5885 25.5 39.9219C30.5 33.2552 36.3333 30.7552 43 32.4219C46.8037 33.3728 49.5224 36.1322 52.5317 39.1869C57.4339 44.1628 63.1076 49.9219 75.5 49.9219C88.8333 49.9219 97.1667 43.2552 100.5 29.9219C95.5 36.5885 89.6667 39.0885 83 37.4219C79.1963 36.4709 76.4776 33.7115 73.4683 30.6569C68.5661 25.6809 62.8924 19.9219 50.5 19.9219ZM25.5 49.9219C12.1667 49.9219 3.83333 56.5885 0.5 69.9219C5.5 63.2552 11.3333 60.7552 18 62.4219C21.8037 63.3728 24.5224 66.1322 27.5317 69.1869C32.4339 74.1628 38.1076 79.9219 50.5 79.9219C63.8333 79.9219 72.1667 73.2552 75.5 59.9219C70.5 66.5885 64.6667 69.0885 58 67.4219C54.1963 66.471 51.4776 63.7115 48.4683 60.6569C43.5661 55.681 37.8924 49.9219 25.5 49.9219Z" fill="#2563EB"/>
</g>
<defs>
<clipPath id="clip0_13_157">
<rect width="100" height="100" fill="white" transform="translate(0.5)"/>
</clipPath>
</defs>
</svg>
