<svg width="101" height="100" viewBox="0 0 101 100" fill="none" xmlns="http://www.w3.org/2000/svg">
<path fill-rule="evenodd" clip-rule="evenodd" d="M57.5157 74.2469V83.8344C59.2576 84.6942 61.1141 85.2993 63.0282 85.6313C65.24 86.0396 67.4852 86.2405 69.7344 86.2313C71.9265 86.2417 74.1137 86.0207 76.2594 85.5719C78.1859 85.1826 80.024 84.441 81.6813 83.3844C83.2198 82.3912 84.4879 81.0319 85.3719 79.4281C86.9551 76.1073 87.164 72.2959 85.9532 68.8219C85.4422 67.5228 84.6809 66.3368 83.7125 65.3313C82.6731 64.2621 81.4924 63.34 80.2032 62.5906C78.7189 61.7213 77.1767 60.9549 75.5875 60.2969C74.3375 59.7781 73.2125 59.274 72.2125 58.7844C71.3243 58.3591 70.4743 57.8583 69.6719 57.2875C69.0434 56.8469 68.4976 56.2989 68.0594 55.6687C67.6808 55.0966 67.4837 54.4235 67.4938 53.7375C67.4854 53.1061 67.6614 52.486 68 51.9531C68.3679 51.3954 68.8585 50.9293 69.4344 50.5906C70.1384 50.1762 70.9044 49.8776 71.7032 49.7063C72.6838 49.4884 73.6862 49.3835 74.6907 49.3938C75.5355 49.3967 76.3791 49.4572 77.2157 49.575C78.1191 49.6971 79.0129 49.882 79.8907 50.1281C80.7835 50.3756 81.6567 50.6889 82.5032 51.0656C83.3245 51.4318 84.1102 51.8732 84.85 52.3844V43.4375C83.3098 42.8548 81.7124 42.4358 80.0844 42.1875C78.1185 41.9014 76.1335 41.7667 74.1469 41.7844C71.9754 41.7727 69.8102 42.0192 67.6969 42.5188C65.7867 42.9552 63.9704 43.7311 62.3344 44.8094C60.8146 45.8218 59.5598 47.1838 58.675 48.7813C57.7374 50.5552 57.2735 52.5411 57.3282 54.5469C57.2589 57.1993 58.1326 59.7904 59.7938 61.8594C61.8319 64.1534 64.4018 65.9121 67.2782 66.9813C68.5907 67.5229 69.8146 68.0531 70.95 68.5719C71.9745 69.0277 72.9591 69.5681 73.8938 70.1875C74.6477 70.6779 75.3098 71.2966 75.85 72.0156C76.3251 72.6678 76.5771 73.4557 76.5688 74.2625C76.5731 74.8671 76.4179 75.4621 76.1188 75.9875C75.7864 76.5521 75.3194 77.0256 74.7594 77.3656C74.0587 77.7928 73.2921 78.1012 72.4907 78.2781C71.4467 78.5115 70.379 78.6216 69.3094 78.6063C67.2104 78.6024 65.1281 78.2323 63.1563 77.5125C61.0963 76.7692 59.186 75.6632 57.5157 74.2469ZM41.4094 50.3781H53.9094V42.4813H19.0563V50.3781H31.5V85.5469H41.4094V50.3781Z" fill="#2563EB"/>
</svg>
