<svg width="100" height="100" viewBox="0 0 100 100" fill="none" xmlns="http://www.w3.org/2000/svg">
<g clip-path="url(#clip0_13_210)">
<path d="M98.9616 15.2638L52.6596 97.7284C51.7036 99.4311 49.2475 99.4411 48.2772 97.7468L1.0573 15.2715C7.33137e-06 13.4254 1.58517 11.1889 3.68589 11.5632L50.0375 19.8147C50.3333 19.8673 50.6361 19.8668 50.9316 19.8131L96.3137 11.5747C98.4075 11.1946 100 13.4139 98.9616 15.2638Z" fill="#2563EB"/>
<path d="M72.117 0.739167L37.8525 7.42644C37.5788 7.47986 37.3306 7.62239 37.147 7.83161C36.9634 8.04084 36.8549 8.30489 36.8384 8.58227L34.7307 44.0381C34.7191 44.2325 34.7532 44.427 34.8303 44.606C34.9073 44.7851 35.0252 44.9438 35.1746 45.0695C35.324 45.1953 35.5007 45.2846 35.6908 45.3304C35.8809 45.3762 36.0791 45.3773 36.2697 45.3335L45.8095 43.1407C46.702 42.9355 47.5087 43.7186 47.325 44.6125L44.4908 58.4361C44.3002 59.3665 45.1769 60.1618 46.0891 59.8857L51.9815 58.1029C52.8948 57.8268 53.7727 58.6244 53.5794 59.5555L49.0753 81.269C48.7935 82.6274 50.6074 83.3679 51.3636 82.2036L51.8691 81.4259L79.7898 25.9275C80.2577 24.9983 79.451 23.9387 78.4268 24.1358L68.6067 26.0233C67.6842 26.2005 66.8991 25.3445 67.1594 24.4457L73.5686 2.31645C73.8292 1.41526 73.0407 0.558928 72.117 0.739167Z" fill="#18181B"/>
</g>
<defs>
<clipPath id="clip0_13_210">
<rect width="100" height="100" fill="white"/>
</clipPath>
</defs>
</svg>
